SplineFontDB: 3.2
FontName: JuliaMono-RegularItalic
FullName: JuliaMono RegularItalic
FamilyName: JuliaMono
Weight: Book
Copyright: Copyright 2021 The JuliaMono Project Authors (https://github.com/cormullion/juliamono)
Version: 0.044; ttfautohint (v1.8.4)
ItalicAngle: -9
UnderlinePosition: -250
UnderlineWidth: 100
Ascent: 1600
Descent: 400
InvalidEm: 0
sfntRevision: 0x00000b43
LayerCount: 2
Layer: 0 1 "Back" 1
Layer: 1 1 "Fore" 0
XUID: [1021 821 -1512940191 22808]
StyleMap: 0x0001
FSType: 0
OS2Version: 4
OS2_WeightWidthSlopeOnly: 0
OS2_UseTypoMetrics: 1
CreationTime: 1643970042
ModificationTime: 1658265624
PfmFamily: 17
TTFWeight: 400
TTFWidth: 5
LineGap: 0
VLineGap: 0
Panose: 2 11 6 9 6 3 0 2 0 4
OS2TypoAscent: 1900
OS2TypoAOffset: 0
OS2TypoDescent: -480
OS2TypoDOffset: 0
OS2TypoLinegap: 0
OS2WinAscent: 2400
OS2WinAOffset: 0
OS2WinDescent: 600
OS2WinDOffset: 0
HheadAscent: 1900
HheadAOffset: 0
HheadDescent: -480
HheadDOffset: 0
OS2SubXSize: 1300
OS2SubYSize: 1200
OS2SubXOff: 0
OS2SubYOff: 150
OS2SupXSize: 1300
OS2SupYSize: 1200
OS2SupXOff: 0
OS2SupYOff: 700
OS2StrikeYSize: 100
OS2StrikeYPos: 1100
OS2CapHeight: 1450
OS2XHeight: 1100
OS2Vendor: 'UKWN'
OS2CodePages: 602801bf.00000000
OS2UnicodeRanges: e501ffff.fac5ffff.0f04e877.05c0a06c
Lookup: 1 0 0 "'aalt' Access All Alternates lookup 0" { "'aalt' Access All Alternates lookup 0 subtable"  } ['aalt' ('DFLT' <'dflt' > 'cyrl' <'BGR ' 'SRB ' 'dflt' > 'hebr' <'IWR ' 'dflt' > 'latn' <'AZE ' 'CAT ' 'CRT ' 'KAZ ' 'MOL ' 'NLD ' 'ROM ' 'TAT ' 'TRK ' 'dflt' > ) ]
Lookup: 3 0 0 "'aalt' Access All Alternates lookup 1" { "'aalt' Access All Alternates lookup 1 subtable"  } ['aalt' ('DFLT' <'dflt' > 'cyrl' <'BGR ' 'SRB ' 'dflt' > 'hebr' <'IWR ' 'dflt' > 'latn' <'AZE ' 'CAT ' 'CRT ' 'KAZ ' 'MOL ' 'NLD ' 'ROM ' 'TAT ' 'TRK ' 'dflt' > ) ]

StartChar: A
Encoding: 65 65 0
Width: 1200
GlyphClass: 2
Flags: W
AnchorPoint: "Anchor-36" 605 1454 basechar 0
AnchorPoint: "Anchor-35" 761 1450 basechar 0
AnchorPoint: "Anchor-34" 929 0 basechar 0
AnchorPoint: "Anchor-33" 499 0 basechar 0
LayerCount: 2
Fore
SplineSet
657 1450 m 1,0,-1
 857 1450 l 1,1,-1
 1016 0 l 1,2,-1
 828 0 l 1,3,-1
 792 406 l 1,4,-1
 356 406 l 1,5,-1
 180 0 l 1,6,-1
 -8 0 l 1,7,-1
 657 1450 l 1,0,-1
781 550 m 1,8,-1
 731 1266 l 1,9,-1
 723 1266 l 1,10,-1
 423 550 l 1,11,-1
 781 550 l 1,8,-1
EndSplineSet
Substitution2: "Single Substitution lookup 63 subtable" ordfeminine
Substitution2: "'fwid' Full Widths lookup 32 subtable" uniFF21
Substitution2: "'c2sc' Capitals to Small Capitals lookup 26 subtable" a.sc
AlternateSubs2: "'aalt' Access All Alternates lookup 1 subtable" ordfeminine a.sc uniFF21
EndChar

StartChar: B
Encoding: 66 66 1
Width: 1200
GlyphClass: 2
Flags: W
AnchorPoint: "Anchor-35" 747 1450 basechar 0
AnchorPoint: "Anchor-33" 491 0 basechar 0
LayerCount: 2
Fore
SplineSet
325 1450 m 1,0,-1
 698 1450 l 2,1,2
 852 1450 852 1450 949 1381 c 128,-1,3
 1046 1312 1046 1312 1046 1162 c 0,4,5
 1046 1115 1046 1115 1038 1072 c 0,6,7
 1022 980 1022 980 993 921 c 128,-1,8
 964 862 964 862 920.5 824 c 128,-1,9
 877 786 877 786 808 754 c 1,10,11
 1060 707 1060 707 1060 478 c 0,12,13
 1060 433 1060 433 1052 390 c 0,14,15
 983 0 983 0 482 0 c 2,16,-1
 69 0 l 1,17,-1
 325 1450 l 1,0,-1
448 148 m 2,18,19
 559 148 559 148 644 166 c 128,-1,20
 729 184 729 184 795 244.5 c 128,-1,21
 861 305 861 305 881 422 c 0,22,23
 887 457 887 457 887 485 c 0,24,25
 887 593 887 593 811.5 635.5 c 128,-1,26
 736 678 736 678 604 678 c 2,27,-1
 357 678 l 1,28,-1
 263 148 l 1,29,-1
 448 148 l 2,18,19
523 820 m 2,30,31
 657 820 657 820 748.5 878 c 128,-1,32
 840 936 840 936 865 1080 c 0,33,34
 870 1105 870 1105 870 1136 c 0,35,36
 870 1227 870 1227 809 1262.5 c 128,-1,37
 748 1298 748 1298 641 1298 c 2,38,-1
 466 1298 l 1,39,-1
 382 820 l 1,40,-1
 523 820 l 2,30,31
EndSplineSet
Substitution2: "'fwid' Full Widths lookup 32 subtable" uniFF22
Substitution2: "'c2sc' Capitals to Small Capitals lookup 26 subtable" b.sc
AlternateSubs2: "'aalt' Access All Alternates lookup 1 subtable" b.sc uniFF22
EndChar

StartChar: C
Encoding: 67 67 2
Width: 1200
GlyphClass: 2
Flags: W
AnchorPoint: "Anchor-35" 759 1450 basechar 0
AnchorPoint: "Anchor-33" 503 0 basechar 0
LayerCount: 2
Fore
SplineSet
245 87.5 m 128,-1,1
 138 211 138 211 138 453 c 0,2,3
 138 573 138 573 163 716 c 0,4,5
 206 959 206 959 297 1127 c 128,-1,6
 388 1295 388 1295 522 1381.5 c 128,-1,7
 656 1468 656 1468 826 1468 c 0,8,9
 957 1468 957 1468 1059 1421 c 128,-1,10
 1161 1374 1161 1374 1202 1271 c 1,11,-1
 1084 1198 l 1,12,13
 1043 1252 1043 1252 1000 1279.5 c 128,-1,14
 957 1307 957 1307 914 1315.5 c 128,-1,15
 871 1324 871 1324 815 1324 c 0,16,17
 626 1324 626 1324 513.5 1161.5 c 128,-1,18
 401 999 401 999 349 702 c 0,19,20
 321 545 321 545 321 432 c 0,21,22
 321 277 321 277 380.5 196.5 c 128,-1,23
 440 116 440 116 575 116 c 0,24,25
 680 116 680 116 763.5 153 c 128,-1,26
 847 190 847 190 915 273 c 1,27,-1
 1011 165 l 1,28,29
 930 61 930 61 815 12.5 c 128,-1,30
 700 -36 700 -36 567 -36 c 0,31,0
 352 -36 352 -36 245 87.5 c 128,-1,1
EndSplineSet
Substitution2: "'fwid' Full Widths lookup 32 subtable" uniFF23
Substitution2: "'c2sc' Capitals to Small Capitals lookup 26 subtable" c.sc
AlternateSubs2: "'aalt' Access All Alternates lookup 1 subtable" c.sc uniFF23
EndChar

StartChar: D
Encoding: 68 68 3
Width: 1200
GlyphClass: 2
Flags: W
AnchorPoint: "Anchor-37" 626 700 basechar 0
AnchorPoint: "Anchor-35" 759 1450 basechar 0
AnchorPoint: "Anchor-33" 503 0 basechar 0
LayerCount: 2
Fore
SplineSet
331 1450 m 1,0,-1
 594 1450 l 2,1,2
 780 1450 780 1450 900.5 1402.5 c 128,-1,3
 1021 1355 1021 1355 1082 1250 c 128,-1,4
 1143 1145 1143 1145 1143 973 c 0,5,6
 1143 860 1143 860 1118 722 c 0,7,8
 1073 463 1073 463 981 306 c 128,-1,9
 889 149 889 149 732 74.5 c 128,-1,10
 575 0 575 0 332 0 c 2,11,-1
 75 0 l 1,12,-1
 331 1450 l 1,0,-1
362 146 m 2,13,14
 529 146 529 146 641 201 c 128,-1,15
 753 256 753 256 826.5 386.5 c 128,-1,16
 900 517 900 517 941 746 c 0,17,18
 962 866 962 866 962 957 c 0,19,20
 962 1140 962 1140 874 1221 c 128,-1,21
 786 1302 786 1302 596 1302 c 2,22,-1
 481 1302 l 1,23,-1
 277 146 l 1,24,-1
 362 146 l 2,13,14
EndSplineSet
Substitution2: "'fwid' Full Widths lookup 32 subtable" uniFF24
Substitution2: "'c2sc' Capitals to Small Capitals lookup 26 subtable" d.sc
AlternateSubs2: "'aalt' Access All Alternates lookup 1 subtable" d.sc uniFF24
EndChar

StartChar: E
Encoding: 69 69 4
Width: 1200
GlyphClass: 2
Flags: W
AnchorPoint: "Anchor-36" 353 1450 basechar 0
AnchorPoint: "Anchor-35" 759 1450 basechar 0
AnchorPoint: "Anchor-34" 823 0 basechar 0
AnchorPoint: "Anchor-33" 503 0 basechar 0
LayerCount: 2
Fore
SplineSet
335 1450 m 1,0,-1
 1173 1450 l 1,1,-1
 1146 1300 l 1,2,-1
 484 1300 l 1,3,-1
 401 828 l 1,4,-1
 1035 828 l 1,5,-1
 1009 682 l 1,6,-1
 375 682 l 1,7,-1
 281 146 l 1,8,-1
 969 146 l 1,9,-1
 943 0 l 1,10,-1
 79 0 l 1,11,-1
 335 1450 l 1,0,-1
EndSplineSet
Substitution2: "'fwid' Full Widths lookup 32 subtable" uniFF25
Substitution2: "'c2sc' Capitals to Small Capitals lookup 26 subtable" e.sc
AlternateSubs2: "'aalt' Access All Alternates lookup 1 subtable" e.sc uniFF25
EndChar

StartChar: F
Encoding: 70 70 5
Width: 1200
GlyphClass: 2
Flags: W
AnchorPoint: "Anchor-35" 759 1450 basechar 0
AnchorPoint: "Anchor-33" 503 0 basechar 0
LayerCount: 2
Fore
SplineSet
357 1450 m 1,0,-1
 1225 1450 l 1,1,-1
 1198 1300 l 1,2,-1
 506 1300 l 1,3,-1
 416 790 l 1,4,-1
 1076 790 l 1,5,-1
 1051 644 l 1,6,-1
 391 644 l 1,7,-1
 277 0 l 1,8,-1
 101 0 l 1,9,-1
 357 1450 l 1,0,-1
EndSplineSet
Substitution2: "'fwid' Full Widths lookup 32 subtable" uniFF26
Substitution2: "'c2sc' Capitals to Small Capitals lookup 26 subtable" f.sc
AlternateSubs2: "'aalt' Access All Alternates lookup 1 subtable" f.sc uniFF26
EndChar

StartChar: G
Encoding: 71 71 6
Width: 1200
GlyphClass: 2
Flags: W
AnchorPoint: "Anchor-35" 742 1466 basechar 0
AnchorPoint: "Anchor-33" 503 0 basechar 0
LayerCount: 2
Fore
SplineSet
123 453 m 0,1,2
 123 586 123 586 151 740 c 0,3,4
 213 1092 213 1092 360 1281 c 128,-1,5
 507 1470 507 1470 778 1470 c 0,6,7
 927 1470 927 1470 1036 1409 c 128,-1,8
 1145 1348 1145 1348 1180 1223 c 1,9,-1
 1033 1153 l 1,10,11
 996 1253 996 1253 933.5 1287.5 c 128,-1,12
 871 1322 871 1322 788 1322 c 0,13,14
 640 1322 640 1322 547.5 1242.5 c 128,-1,15
 455 1163 455 1163 405.5 1033 c 128,-1,16
 356 903 356 903 323 715 c 0,17,18
 293 547 293 547 293 442 c 0,19,20
 293 299 293 299 348 213.5 c 128,-1,21
 403 128 403 128 538 128 c 0,22,23
 850 128 850 128 937 622 c 1,24,-1
 588 616 l 1,25,-1
 612 756 l 1,26,-1
 1114 756 l 1,27,-1
 981 0 l 1,28,-1
 831 0 l 1,29,-1
 860 154 l 1,30,-1
 853 149 l 1,31,32
 803 70 803 70 729 25 c 128,-1,33
 655 -20 655 -20 524 -20 c 0,34,0
 123 -20 123 -20 123 453 c 0,1,2
EndSplineSet
Substitution2: "'fwid' Full Widths lookup 32 subtable" uniFF27
Substitution2: "'c2sc' Capitals to Small Capitals lookup 26 subtable" g.sc
AlternateSubs2: "'aalt' Access All Alternates lookup 1 subtable" g.sc uniFF27
EndChar

StartChar: H
Encoding: 72 72 7
Width: 1200
GlyphClass: 2
Flags: W
AnchorPoint: "Anchor-39" 913 0 basechar 0
AnchorPoint: "Anchor-37" 631 726 basechar 0
AnchorPoint: "Anchor-36" 249 1450 basechar 0
AnchorPoint: "Anchor-35" 759 1450 basechar 0
AnchorPoint: "Anchor-33" 179 0 basechar 0
LayerCount: 2
Fore
SplineSet
349 1450 m 1,0,-1
 523 1450 l 1,1,-1
 414 834 l 1,2,-1
 886 834 l 1,3,-1
 995 1450 l 1,4,-1
 1169 1450 l 1,5,-1
 913 0 l 1,6,-1
 739 0 l 1,7,-1
 858 676 l 1,8,-1
 386 676 l 1,9,-1
 267 0 l 1,10,-1
 93 0 l 1,11,-1
 349 1450 l 1,0,-1
EndSplineSet
Substitution2: "'fwid' Full Widths lookup 32 subtable" uniFF28
Substitution2: "'c2sc' Capitals to Small Capitals lookup 26 subtable" h.sc
AlternateSubs2: "'aalt' Access All Alternates lookup 1 subtable" h.sc uniFF28
EndChar

StartChar: I
Encoding: 73 73 8
Width: 1200
GlyphClass: 2
Flags: W
AnchorPoint: "Anchor-36" 383 1450 basechar 0
AnchorPoint: "Anchor-35" 759 1450 basechar 0
AnchorPoint: "Anchor-34" 503 0 basechar 0
AnchorPoint: "Anchor-33" 503 0 basechar 0
LayerCount: 2
Fore
SplineSet
152 140 m 1,0,-1
 442 140 l 1,1,-1
 648 1310 l 1,2,-1
 396 1310 l 1,3,-1
 421 1450 l 1,4,-1
 1095 1450 l 1,5,-1
 1070 1310 l 1,6,-1
 824 1310 l 1,7,-1
 618 140 l 1,8,-1
 902 140 l 1,9,-1
 877 0 l 1,10,-1
 127 0 l 1,11,-1
 152 140 l 1,0,-1
EndSplineSet
Substitution2: "'fwid' Full Widths lookup 32 subtable" uniFF29
Substitution2: "'c2sc' Capitals to Small Capitals lookup 26 subtable" i.sc
AlternateSubs2: "'aalt' Access All Alternates lookup 1 subtable" i.sc uniFF29
EndChar

StartChar: J
Encoding: 74 74 9
Width: 1200
GlyphClass: 2
Flags: W
AnchorPoint: "Anchor-35" 757 1450 basechar 0
AnchorPoint: "Anchor-33" 482 -20 basechar 0
LayerCount: 2
Fore
SplineSet
286 19.5 m 128,-1,1
 202 59 202 59 155.5 133.5 c 128,-1,2
 109 208 109 208 109 312 c 0,3,4
 109 350 109 350 117 398 c 1,5,-1
 301 386 l 1,6,7
 295 353 295 353 295 324 c 0,8,9
 295 232 295 232 347 180 c 128,-1,10
 399 128 399 128 489 128 c 0,11,12
 607 128 607 128 688.5 209.5 c 128,-1,13
 770 291 770 291 797 444 c 2,14,-1
 946 1288 l 1,15,-1
 382 1288 l 1,16,-1
 411 1450 l 1,17,-1
 1149 1450 l 1,18,-1
 969 428 l 2,19,20
 929 200 929 200 808 90 c 128,-1,21
 687 -20 687 -20 480 -20 c 0,22,0
 370 -20 370 -20 286 19.5 c 128,-1,1
EndSplineSet
Substitution2: "'fwid' Full Widths lookup 32 subtable" uniFF2A
Substitution2: "'c2sc' Capitals to Small Capitals lookup 26 subtable" j.sc
AlternateSubs2: "'aalt' Access All Alternates lookup 1 subtable" j.sc uniFF2A
EndChar

StartChar: K
Encoding: 75 75 10
Width: 1200
GlyphClass: 2
Flags: W
AnchorPoint: "Anchor-35" 759 1450 basechar 0
AnchorPoint: "Anchor-33" 503 0 basechar 0
LayerCount: 2
Fore
SplineSet
406 776 m 1,0,-1
 269 0 l 1,1,-1
 95 0 l 1,2,-1
 351 1452 l 1,3,-1
 525 1452 l 1,4,-1
 409 796 l 1,5,-1
 1027 1452 l 1,6,-1
 1245 1452 l 1,7,-1
 594 798 l 1,8,-1
 1047 0 l 1,9,-1
 831 0 l 1,10,-1
 406 776 l 1,0,-1
EndSplineSet
Substitution2: "'fwid' Full Widths lookup 32 subtable" uniFF2B
Substitution2: "'c2sc' Capitals to Small Capitals lookup 26 subtable" k.sc
AlternateSubs2: "'aalt' Access All Alternates lookup 1 subtable" k.sc uniFF2B
EndChar

StartChar: L
Encoding: 76 76 11
Width: 1200
GlyphClass: 2
Flags: W
AnchorPoint: "Anchor-38" 1203 1454 basechar 0
AnchorPoint: "Anchor-37" 631 726 basechar 0
AnchorPoint: "Anchor-35" 759 1454 basechar 0
AnchorPoint: "Anchor-33" 514 -38 basechar 0
LayerCount: 2
Fore
SplineSet
349 1454 m 1,0,-1
 525 1454 l 1,1,-1
 295 146 l 1,2,-1
 1005 146 l 1,3,-1
 979 0 l 1,4,-1
 93 0 l 1,5,-1
 349 1454 l 1,0,-1
EndSplineSet
Substitution2: "'fwid' Full Widths lookup 32 subtable" uniFF2C
Substitution2: "'c2sc' Capitals to Small Capitals lookup 26 subtable" l.sc
AlternateSubs2: "'aalt' Access All Alternates lookup 1 subtable" l.sc uniFF2C
EndChar

StartChar: M
Encoding: 77 77 12
Width: 1200
GlyphClass: 2
Flags: W
AnchorPoint: "Anchor-39" 981 0 basechar 0
AnchorPoint: "Anchor-35" 759 1450 basechar 0
AnchorPoint: "Anchor-33" 503 0 basechar 0
LayerCount: 2
Fore
SplineSet
281 1450 m 1,0,-1
 570 1450 l 1,1,-1
 613 633 l 1,2,-1
 944 1450 l 1,3,-1
 1237 1450 l 1,4,-1
 981 0 l 1,5,-1
 809 0 l 1,6,-1
 1022 1214 l 1,7,-1
 1004 1195 l 1,8,-1
 647 400 l 1,9,-1
 501 400 l 1,10,-1
 418 1195 l 1,11,-1
 410 1211 l 1,12,-1
 197 0 l 1,13,-1
 25 0 l 1,14,-1
 281 1450 l 1,0,-1
EndSplineSet
Substitution2: "'fwid' Full Widths lookup 32 subtable" uniFF2D
Substitution2: "'c2sc' Capitals to Small Capitals lookup 26 subtable" m.sc
AlternateSubs2: "'aalt' Access All Alternates lookup 1 subtable" m.sc uniFF2D
EndChar

StartChar: N
Encoding: 78 78 13
Width: 1200
GlyphClass: 2
Flags: W
AnchorPoint: "Anchor-35" 758 1446 basechar 0
AnchorPoint: "Anchor-33" 503 0 basechar 0
LayerCount: 2
Fore
SplineSet
337 1450 m 1,0,-1
 585 1450 l 1,1,-1
 736 486 l 1,2,-1
 777 234 l 1,3,-1
 993 1450 l 1,4,-1
 1169 1450 l 1,5,-1
 913 0 l 1,6,-1
 675 0 l 1,7,-1
 465 1192 l 1,8,-1
 253 0 l 1,9,-1
 81 0 l 1,10,-1
 337 1450 l 1,0,-1
EndSplineSet
Substitution2: "'fwid' Full Widths lookup 32 subtable" uniFF2E
Substitution2: "'c2sc' Capitals to Small Capitals lookup 26 subtable" n.sc
AlternateSubs2: "'aalt' Access All Alternates lookup 1 subtable" n.sc uniFF2E
EndChar

StartChar: O
Encoding: 79 79 14
Width: 1200
GlyphClass: 2
Flags: W
AnchorPoint: "Anchor-38" 1000 1388 basechar 0
AnchorPoint: "Anchor-37" 631 726 basechar 0
AnchorPoint: "Anchor-36" 249 1450 basechar 0
AnchorPoint: "Anchor-35" 759 1450 basechar 0
AnchorPoint: "Anchor-34" 502 -8 basechar 0
AnchorPoint: "Anchor-33" 500 -16 basechar 0
LayerCount: 2
Fore
SplineSet
185 122 m 128,-1,1
 78 268 78 268 78 515 c 0,2,3
 78 630 78 630 101 762 c 0,4,5
 138 974 138 974 229.5 1134 c 128,-1,6
 321 1294 321 1294 455 1382 c 128,-1,7
 589 1470 589 1470 752 1470 c 0,8,9
 891 1470 891 1470 988 1406.5 c 128,-1,10
 1085 1343 1085 1343 1135 1226 c 128,-1,11
 1185 1109 1185 1109 1185 950 c 0,12,13
 1185 853 1185 853 1165 738 c 0,14,15
 1126 518 1126 518 1040 346.5 c 128,-1,16
 954 175 954 175 819.5 75.5 c 128,-1,17
 685 -24 685 -24 509 -24 c 0,18,0
 292 -24 292 -24 185 122 c 128,-1,1
269 516 m 0,20,21
 269 344 269 344 330.5 244 c 128,-1,22
 392 144 392 144 512 144 c 0,23,24
 621 144 621 144 715 223 c 128,-1,25
 809 302 809 302 876 440 c 128,-1,26
 943 578 943 578 974 752 c 0,27,28
 989 839 989 839 989 918 c 0,29,30
 989 1034 989 1034 958.5 1124 c 128,-1,31
 928 1214 928 1214 871.5 1264 c 128,-1,32
 815 1314 815 1314 741 1314 c 0,33,34
 645 1314 645 1314 551.5 1236.5 c 128,-1,35
 458 1159 458 1159 388 1024.5 c 128,-1,36
 318 890 318 890 289 728 c 0,37,19
 269 611 269 611 269 516 c 0,20,21
EndSplineSet
Substitution2: "Single Substitution lookup 63 subtable" ordmasculine
Substitution2: "'fwid' Full Widths lookup 32 subtable" uniFF2F
Substitution2: "'c2sc' Capitals to Small Capitals lookup 26 subtable" o.sc
AlternateSubs2: "'aalt' Access All Alternates lookup 1 subtable" ordmasculine o.sc uniFF2F
EndChar

StartChar: P
Encoding: 80 80 15
Width: 1200
GlyphClass: 2
Flags: W
AnchorPoint: "Anchor-36" 334 1448 basechar 0
AnchorPoint: "Anchor-35" 757 1450 basechar 0
AnchorPoint: "Anchor-33" 503 0 basechar 0
LayerCount: 2
Fore
SplineSet
329 1450 m 1,0,-1
 746 1450 l 2,1,2
 944 1450 944 1450 1063.5 1374 c 128,-1,3
 1183 1298 1183 1298 1183 1122 c 0,4,5
 1183 1071 1183 1071 1173 1018 c 0,6,7
 1134 796 1134 796 982 703 c 128,-1,8
 830 610 830 610 616 610 c 2,9,-1
 357 610 l 1,10,-1
 249 0 l 1,11,-1
 73 0 l 1,12,-1
 329 1450 l 1,0,-1
557 756 m 2,13,14
 682 756 682 756 766 775.5 c 128,-1,15
 850 795 850 795 909.5 858 c 128,-1,16
 969 921 969 921 991 1044 c 0,17,18
 998 1090 998 1090 998 1114 c 0,19,20
 998 1190 998 1190 961.5 1231.5 c 128,-1,21
 925 1273 925 1273 863.5 1287.5 c 128,-1,22
 802 1302 802 1302 714 1302 c 2,23,-1
 479 1302 l 1,24,-1
 382 756 l 1,25,-1
 557 756 l 2,13,14
EndSplineSet
Substitution2: "'fwid' Full Widths lookup 32 subtable" uniFF30
Substitution2: "'c2sc' Capitals to Small Capitals lookup 26 subtable" p.sc
AlternateSubs2: "'aalt' Access All Alternates lookup 1 subtable" p.sc uniFF30
EndChar

StartChar: Q
Encoding: 81 81 16
Width: 1200
GlyphClass: 2
Flags: W
AnchorPoint: "Anchor-38" 1003 1404 basechar 0
AnchorPoint: "Anchor-37" 631 726 basechar 0
AnchorPoint: "Anchor-36" 249 1450 basechar 0
AnchorPoint: "Anchor-35" 762 1456 basechar 0
AnchorPoint: "Anchor-34" 502 -8 basechar 0
AnchorPoint: "Anchor-33" 452 -288 basechar 0
LayerCount: 2
Fore
SplineSet
449.5 -251.5 m 128,-1,1
 404 -207 404 -207 404 -118 c 0,2,3
 404 -76 404 -76 414 -11 c 1,4,5
 238 18 238 18 156.5 150 c 128,-1,6
 75 282 75 282 75 493 c 0,7,8
 75 617 75 617 101 762 c 0,9,10
 138 972 138 972 231 1132.5 c 128,-1,11
 324 1293 324 1293 459 1381.5 c 128,-1,12
 594 1470 594 1470 752 1470 c 0,13,14
 888 1470 888 1470 985.5 1405.5 c 128,-1,15
 1083 1341 1083 1341 1133.5 1222 c 128,-1,16
 1184 1103 1184 1103 1184 943 c 0,17,18
 1184 843 1184 843 1165 738 c 0,19,20
 1109 419 1109 419 968.5 218 c 128,-1,21
 828 17 828 17 589 -13 c 1,22,23
 584 -40 584 -40 584 -58 c 0,24,25
 584 -90 584 -90 602.5 -106 c 128,-1,26
 621 -122 621 -122 669 -122 c 2,27,-1
 1044 -122 l 1,28,-1
 1013 -296 l 1,29,-1
 605 -296 l 2,30,0
 495 -296 495 -296 449.5 -251.5 c 128,-1,1
264 476 m 0,32,33
 264 136 264 136 511 136 c 0,34,35
 696 136 696 136 810.5 306 c 128,-1,36
 925 476 925 476 975 762 c 0,37,38
 990 848 990 848 990 927 c 0,39,40
 990 1038 990 1038 961 1125 c 128,-1,41
 932 1212 932 1212 875 1262 c 128,-1,42
 818 1312 818 1312 739 1312 c 0,43,44
 634 1312 634 1312 542.5 1237.5 c 128,-1,45
 451 1163 451 1163 385.5 1032 c 128,-1,46
 320 901 320 901 291 738 c 0,47,31
 264 587 264 587 264 476 c 0,32,33
EndSplineSet
Substitution2: "'fwid' Full Widths lookup 32 subtable" uniFF31
Substitution2: "'c2sc' Capitals to Small Capitals lookup 26 subtable" q.sc
AlternateSubs2: "'aalt' Access All Alternates lookup 1 subtable" q.sc uniFF31
EndChar

StartChar: R
Encoding: 82 82 17
Width: 1200
GlyphClass: 2
Flags: W
AnchorPoint: "Anchor-35" 759 1450 basechar 0
AnchorPoint: "Anchor-33" 503 0 basechar 0
LayerCount: 2
Fore
SplineSet
333 1450 m 1,0,-1
 764 1450 l 2,1,2
 867 1450 867 1450 958 1413 c 128,-1,3
 1049 1376 1049 1376 1105 1300.5 c 128,-1,4
 1161 1225 1161 1225 1161 1115 c 0,5,6
 1161 1075 1161 1075 1154 1036 c 0,7,8
 1128 891 1128 891 1032.5 798 c 128,-1,9
 937 705 937 705 799 667 c 1,10,-1
 1006 -8 l 1,11,-1
 819 -8 l 1,12,-1
 619 642 l 1,13,-1
 611 642 l 1,14,-1
 366 642 l 1,15,-1
 253 0 l 1,16,-1
 77 0 l 1,17,-1
 333 1450 l 1,0,-1
578 796 m 2,18,19
 685 796 685 796 764 816 c 128,-1,20
 843 836 843 836 900 894 c 128,-1,21
 957 952 957 952 976 1062 c 0,22,23
 982 1094 982 1094 982 1120 c 0,24,25
 982 1222 982 1222 910.5 1262 c 128,-1,26
 839 1302 839 1302 720 1302 c 2,27,-1
 483 1302 l 1,28,-1
 393 796 l 1,29,-1
 578 796 l 2,18,19
EndSplineSet
Substitution2: "'fwid' Full Widths lookup 32 subtable" uniFF32
Substitution2: "'c2sc' Capitals to Small Capitals lookup 26 subtable" r.sc
AlternateSubs2: "'aalt' Access All Alternates lookup 1 subtable" r.sc uniFF32
EndChar

StartChar: S
Encoding: 83 83 18
Width: 1200
GlyphClass: 2
Flags: W
AnchorPoint: "Anchor-35" 759 1454 basechar 0
AnchorPoint: "Anchor-33" 504 4 basechar 0
LayerCount: 2
Fore
SplineSet
331.5 179.5 m 128,-1,1
 415 126 415 126 497 126 c 0,2,3
 591 126 591 126 673.5 154.5 c 128,-1,4
 756 183 756 183 813 243 c 128,-1,5
 870 303 870 303 886 392 c 0,6,7
 890 411 890 411 890 433 c 0,8,9
 890 493 890 493 855 532.5 c 128,-1,10
 820 572 820 572 767.5 596 c 128,-1,11
 715 620 715 620 624 651 c 0,12,13
 570 669 570 669 516 690 c 0,14,15
 378 739 378 739 296.5 815 c 128,-1,16
 215 891 215 891 215 1014 c 0,17,18
 215 1046 215 1046 221 1080 c 0,19,20
 244 1211 244 1211 325.5 1298.5 c 128,-1,21
 407 1386 407 1386 520.5 1428 c 128,-1,22
 634 1470 634 1470 758 1470 c 0,23,24
 860 1470 860 1470 934 1444 c 128,-1,25
 1008 1418 1008 1418 1061.5 1373 c 128,-1,26
 1115 1328 1115 1328 1169 1258 c 1,27,-1
 1044 1164 l 1,28,29
 991 1239 991 1239 916.5 1280.5 c 128,-1,30
 842 1322 842 1322 750 1322 c 0,31,32
 674 1322 674 1322 595 1293 c 128,-1,33
 516 1264 516 1264 458.5 1206 c 128,-1,34
 401 1148 401 1148 387 1068 c 0,35,36
 383 1040 383 1040 383 1029 c 0,37,38
 383 964 383 964 423.5 919.5 c 128,-1,39
 464 875 464 875 523.5 847 c 128,-1,40
 583 819 583 819 686 783 c 0,41,42
 804 742 804 742 877 706 c 128,-1,43
 950 670 950 670 1000.5 608 c 128,-1,44
 1051 546 1051 546 1051 452 c 0,45,46
 1051 422 1051 422 1045 386 c 0,47,48
 1024 267 1024 267 949 174 c 128,-1,49
 874 81 874 81 757.5 29.5 c 128,-1,50
 641 -22 641 -22 501 -22 c 0,51,52
 349 -22 349 -22 240.5 45.5 c 128,-1,53
 132 113 132 113 55 230 c 1,54,-1
 174 330 l 1,55,0
 248 233 248 233 331.5 179.5 c 128,-1,1
EndSplineSet
Substitution2: "'fwid' Full Widths lookup 32 subtable" uniFF33
Substitution2: "'c2sc' Capitals to Small Capitals lookup 26 subtable" s.sc
AlternateSubs2: "'aalt' Access All Alternates lookup 1 subtable" s.sc uniFF33
EndChar

StartChar: T
Encoding: 84 84 19
Width: 1200
GlyphClass: 2
Flags: W
AnchorPoint: "Anchor-37" 626 700 basechar 0
AnchorPoint: "Anchor-36" 249 1450 basechar 0
AnchorPoint: "Anchor-35" 759 1450 basechar 0
AnchorPoint: "Anchor-33" 503 0 basechar 0
LayerCount: 2
Fore
SplineSet
648 1298 m 1,0,-1
 222 1298 l 1,1,-1
 249 1450 l 1,2,-1
 1267 1450 l 1,3,-1
 1240 1298 l 1,4,-1
 814 1298 l 1,5,-1
 585 0 l 1,6,-1
 419 0 l 1,7,-1
 648 1298 l 1,0,-1
EndSplineSet
Substitution2: "'fwid' Full Widths lookup 32 subtable" uniFF34
Substitution2: "'c2sc' Capitals to Small Capitals lookup 26 subtable" t.sc
AlternateSubs2: "'aalt' Access All Alternates lookup 1 subtable" t.sc uniFF34
EndChar

StartChar: U
Encoding: 85 85 20
Width: 1200
GlyphClass: 2
Flags: W
AnchorPoint: "Anchor-38" 1241 1454 basechar 0
AnchorPoint: "Anchor-35" 759 1454 basechar 0
AnchorPoint: "Anchor-34" 647 48 basechar 0
AnchorPoint: "Anchor-33" 503 0 basechar 0
LayerCount: 2
Fore
SplineSet
199.5 76 m 128,-1,1
 101 168 101 168 101 369 c 0,2,3
 101 466 101 466 124 598 c 2,4,-1
 275 1454 l 1,5,-1
 447 1454 l 1,6,-1
 295 591 l 2,7,8
 271 456 271 456 271 368 c 0,9,10
 271 279 271 279 296.5 228 c 128,-1,11
 322 177 322 177 375 155 c 128,-1,12
 428 133 428 133 516 133 c 0,13,14
 633 133 633 133 709.5 176.5 c 128,-1,15
 786 220 786 220 835.5 322 c 128,-1,16
 885 424 885 424 917 603 c 2,17,-1
 1067 1454 l 1,18,-1
 1241 1454 l 1,19,-1
 1088 586 l 2,20,21
 1048 358 1048 358 986.5 230.5 c 128,-1,22
 925 103 925 103 813 43.5 c 128,-1,23
 701 -16 701 -16 510 -16 c 0,24,0
 298 -16 298 -16 199.5 76 c 128,-1,1
EndSplineSet
Substitution2: "'fwid' Full Widths lookup 32 subtable" uniFF35
Substitution2: "'c2sc' Capitals to Small Capitals lookup 26 subtable" u.sc
AlternateSubs2: "'aalt' Access All Alternates lookup 1 subtable" u.sc uniFF35
EndChar

StartChar: V
Encoding: 86 86 21
Width: 1200
GlyphClass: 2
Flags: W
AnchorPoint: "Anchor-35" 759 1450 basechar 0
AnchorPoint: "Anchor-33" 503 0 basechar 0
LayerCount: 2
Fore
SplineSet
252 1450 m 1,0,-1
 413 1450 l 1,1,-1
 536 190 l 1,2,-1
 1095 1450 l 1,3,-1
 1266 1450 l 1,4,-1
 594 0 l 1,5,-1
 406 0 l 1,6,-1
 252 1450 l 1,0,-1
EndSplineSet
Substitution2: "'fwid' Full Widths lookup 32 subtable" uniFF36
Substitution2: "'c2sc' Capitals to Small Capitals lookup 26 subtable" v.sc
AlternateSubs2: "'aalt' Access All Alternates lookup 1 subtable" v.sc uniFF36
EndChar

StartChar: W
Encoding: 87 87 22
Width: 1200
GlyphClass: 2
Flags: W
AnchorPoint: "Anchor-35" 759 1450 basechar 0
AnchorPoint: "Anchor-33" 503 0 basechar 0
LayerCount: 2
Fore
SplineSet
263 1450 m 1,0,-1
 432 1450 l 1,1,-1
 287 226 l 1,2,-1
 314 224 l 1,3,-1
 626 1110 l 1,4,-1
 772 1110 l 1,5,-1
 770 224 l 1,6,-1
 799 226 l 1,7,-1
 1080 1450 l 1,8,-1
 1253 1450 l 1,9,-1
 873 0 l 1,10,-1
 624 0 l 1,11,-1
 636 694 l 1,12,-1
 643 746 l 1,13,-1
 629 746 l 1,14,-1
 617 694 l 1,15,-1
 370 0 l 1,16,-1
 127 0 l 1,17,-1
 263 1450 l 1,0,-1
EndSplineSet
Substitution2: "'fwid' Full Widths lookup 32 subtable" uniFF37
Substitution2: "'c2sc' Capitals to Small Capitals lookup 26 subtable" w.sc
AlternateSubs2: "'aalt' Access All Alternates lookup 1 subtable" w.sc uniFF37
EndChar

StartChar: X
Encoding: 88 88 23
Width: 1200
GlyphClass: 2
Flags: W
AnchorPoint: "Anchor-39" 916 -94 basechar 0
AnchorPoint: "Anchor-35" 759 1450 basechar 0
AnchorPoint: "Anchor-33" 503 0 basechar 0
LayerCount: 2
Fore
SplineSet
538 752 m 1,0,-1
 277 1450 l 1,1,-1
 469 1450 l 1,2,-1
 651 904 l 1,3,-1
 1039 1450 l 1,4,-1
 1229 1450 l 1,5,-1
 728 774 l 1,6,-1
 1007 0 l 1,7,-1
 823 0 l 1,8,-1
 614 622 l 1,9,-1
 185 0 l 1,10,-1
 -3 0 l 1,11,-1
 538 752 l 1,0,-1
EndSplineSet
Substitution2: "'fwid' Full Widths lookup 32 subtable" uniFF38
Substitution2: "'c2sc' Capitals to Small Capitals lookup 26 subtable" x.sc
AlternateSubs2: "'aalt' Access All Alternates lookup 1 subtable" x.sc uniFF38
EndChar

StartChar: Y
Encoding: 89 89 24
Width: 1200
GlyphClass: 2
Flags: W
AnchorPoint: "Anchor-36" 265 1450 basechar 0
AnchorPoint: "Anchor-35" 759 1450 basechar 0
AnchorPoint: "Anchor-33" 503 0 basechar 0
LayerCount: 2
Fore
SplineSet
524 606 m 1,0,-1
 266 1450 l 1,1,-1
 449 1450 l 1,2,-1
 640 764 l 1,3,-1
 1071 1450 l 1,4,-1
 1252 1450 l 1,5,-1
 700 606 l 1,6,-1
 591 0 l 1,7,-1
 415 0 l 1,8,-1
 524 606 l 1,0,-1
EndSplineSet
Substitution2: "'fwid' Full Widths lookup 32 subtable" uniFF39
Substitution2: "'c2sc' Capitals to Small Capitals lookup 26 subtable" y.sc
AlternateSubs2: "'aalt' Access All Alternates lookup 1 subtable" y.sc uniFF39
EndChar

StartChar: Z
Encoding: 90 90 25
Width: 1200
GlyphClass: 2
Flags: W
AnchorPoint: "Anchor-37" 626 700 basechar 0
AnchorPoint: "Anchor-35" 759 1450 basechar 0
AnchorPoint: "Anchor-33" 503 0 basechar 0
LayerCount: 2
Fore
SplineSet
34 166 m 1,0,-1
 1017 1302 l 1,1,-1
 297 1302 l 1,2,-1
 323 1450 l 1,3,-1
 1235 1450 l 1,4,-1
 1209 1294 l 1,5,-1
 231 146 l 1,6,-1
 1035 146 l 1,7,-1
 1009 0 l 1,8,-1
 7 0 l 1,9,-1
 34 166 l 1,0,-1
EndSplineSet
Substitution2: "'fwid' Full Widths lookup 32 subtable" uniFF3A
Substitution2: "'c2sc' Capitals to Small Capitals lookup 26 subtable" z.sc
AlternateSubs2: "'aalt' Access All Alternates lookup 1 subtable" z.sc uniFF3A
EndChar

StartChar: a
Encoding: 97 97 26
Width: 1200
GlyphClass: 2
Flags: W
AnchorPoint: "Anchor-35" 687 1100 basechar 0
AnchorPoint: "Anchor-34" 994 10 basechar 0
AnchorPoint: "Anchor-33" 511 -17 basechar 0
LayerCount: 2
Fore
SplineSet
256.5 39 m 128,-1,1
 170 96 170 96 125 196.5 c 128,-1,2
 80 297 80 297 80 425 c 0,3,4
 80 492 80 492 91 554 c 0,5,6
 117 708 117 708 197 836.5 c 128,-1,7
 277 965 277 965 397 1040.5 c 128,-1,8
 517 1116 517 1116 656 1116 c 0,9,10
 754 1116 754 1116 824 1075.5 c 128,-1,11
 894 1035 894 1035 927 947 c 1,12,-1
 937 952 l 1,13,-1
 977 1100 l 1,14,-1
 1134 1100 l 1,15,16
 1118 1044 1118 1044 1108.5 1001.5 c 128,-1,17
 1099 959 1099 959 1092 910 c 2,18,-1
 957 141 l 2,19,20
 951 104 951 104 948 76 c 128,-1,21
 945 48 945 48 945 0 c 1,22,-1
 797 0 l 1,23,24
 800 22 800 22 807.5 67.5 c 128,-1,25
 815 113 815 113 819 140 c 2,26,-1
 829 198 l 1,27,28
 767 108 767 108 673 45 c 128,-1,29
 579 -18 579 -18 461 -18 c 256,30,0
 343 -18 343 -18 256.5 39 c 128,-1,1
271 412 m 0,32,33
 271 290 271 290 317 207.5 c 128,-1,34
 363 125 363 125 471 125 c 0,35,36
 573 125 573 125 654.5 189.5 c 128,-1,37
 736 254 736 254 787.5 354.5 c 128,-1,38
 839 455 839 455 858 562 c 0,39,40
 868 622 868 622 868 674 c 0,41,42
 868 760 868 760 844.5 831 c 128,-1,43
 821 902 821 902 770.5 946 c 128,-1,44
 720 990 720 990 641 990 c 0,45,46
 538 990 538 990 462 917 c 128,-1,47
 386 844 386 844 342.5 740.5 c 128,-1,48
 299 637 299 637 282 539 c 0,49,31
 271 469 271 469 271 412 c 0,32,33
EndSplineSet
Substitution2: "Single Substitution lookup 63 subtable" ordfeminine
Substitution2: "'ss06' Style Set 6 lookup 46 subtable" a.alternate
Substitution2: "'fwid' Full Widths lookup 32 subtable" uniFF41
Substitution2: "'smcp' Lowercase to Small Capitals lookup 27 subtable" a.sc
Substitution2: "'sinf' Scientific Inferiors lookup 14 subtable" uni2090
Substitution2: "'subs' Subscript lookup 13 subtable" uni2090
AlternateSubs2: "'aalt' Access All Alternates lookup 1 subtable" uni2090 ordfeminine a.sc uniFF41 a.alternate
EndChar

StartChar: b
Encoding: 98 98 27
Width: 1200
GlyphClass: 2
Flags: W
AnchorPoint: "Anchor-37" 625 770 basechar 0
AnchorPoint: "Anchor-35" 737 1576 basechar 0
AnchorPoint: "Anchor-33" 459 0 basechar 0
LayerCount: 2
Fore
SplineSet
386.5 18.5 m 128,-1,1
 321 57 321 57 279 143 c 1,2,-1
 245 0 l 1,3,-1
 82 6 l 1,4,5
 109 126 109 126 130 244 c 2,6,-1
 366 1580 l 1,7,-1
 534 1580 l 1,8,-1
 413 909 l 1,9,10
 485 1005 485 1005 571.5 1055.5 c 128,-1,11
 658 1106 658 1106 756 1106 c 0,12,13
 915 1106 915 1106 994 997 c 128,-1,14
 1073 888 1073 888 1073 701 c 0,15,16
 1073 615 1073 615 1054 504 c 0,17,18
 1030 366 1030 366 963 246.5 c 128,-1,19
 896 127 896 127 791.5 53.5 c 128,-1,20
 687 -20 687 -20 556 -20 c 0,21,0
 452 -20 452 -20 386.5 18.5 c 128,-1,1
324 373 m 0,23,24
 324 258 324 258 372 185 c 128,-1,25
 420 112 420 112 525 112 c 0,26,27
 626 112 626 112 701.5 168.5 c 128,-1,28
 777 225 777 225 823 316.5 c 128,-1,29
 869 408 869 408 888 516 c 0,30,31
 906 621 906 621 906 698 c 0,32,33
 906 821 906 821 861 891.5 c 128,-1,34
 816 962 816 962 717 962 c 0,35,36
 616 962 616 962 538 899.5 c 128,-1,37
 460 837 460 837 409.5 730 c 128,-1,38
 359 623 359 623 335 488 c 0,39,22
 324 428 324 428 324 373 c 0,23,24
EndSplineSet
Substitution2: "'fwid' Full Widths lookup 32 subtable" uniFF42
Substitution2: "'smcp' Lowercase to Small Capitals lookup 27 subtable" b.sc
AlternateSubs2: "'aalt' Access All Alternates lookup 1 subtable" b.sc uniFF42
EndChar

StartChar: c
Encoding: 99 99 28
Width: 1200
GlyphClass: 2
Flags: W
AnchorPoint: "Anchor-37" 600 552 basechar 0
AnchorPoint: "Anchor-35" 725 1114 basechar 0
AnchorPoint: "Anchor-33" 561 0 basechar 0
LayerCount: 2
Fore
SplineSet
352.5 40.5 m 128,-1,1
 256 91 256 91 203.5 188 c 128,-1,2
 151 285 151 285 151 421 c 0,3,4
 151 489 151 489 164 560 c 0,5,6
 193 729 193 729 280.5 854.5 c 128,-1,7
 368 980 368 980 496 1047 c 128,-1,8
 624 1114 624 1114 773 1114 c 0,9,10
 887 1114 887 1114 970 1065.5 c 128,-1,11
 1053 1017 1053 1017 1093 951 c 1,12,-1
 974 848 l 1,13,14
 937 898 937 898 890 928 c 128,-1,15
 843 958 843 958 768 958 c 0,16,17
 664 958 664 958 572.5 905 c 128,-1,18
 481 852 481 852 418.5 757.5 c 128,-1,19
 356 663 356 663 335 542 c 0,20,21
 326 491 326 491 326 444 c 0,22,23
 326 355 326 355 357 287.5 c 128,-1,24
 388 220 388 220 447.5 182 c 128,-1,25
 507 144 507 144 588 144 c 0,26,27
 730 144 730 144 885 292 c 1,28,-1
 974 170 l 1,29,30
 890 91 890 91 796.5 40.5 c 128,-1,31
 703 -10 703 -10 579 -10 c 0,32,0
 449 -10 449 -10 352.5 40.5 c 128,-1,1
EndSplineSet
Substitution2: "'fwid' Full Widths lookup 32 subtable" uniFF43
Substitution2: "'smcp' Lowercase to Small Capitals lookup 27 subtable" c.sc
AlternateSubs2: "'aalt' Access All Alternates lookup 1 subtable" c.sc uniFF43
EndChar

StartChar: d
Encoding: 100 100 29
Width: 1200
GlyphClass: 2
Flags: W
AnchorPoint: "Anchor-38" 1143 1000 basechar 0
AnchorPoint: "Anchor-37" 647 784 basechar 0
AnchorPoint: "Anchor-35" 786 1580 basechar 0
AnchorPoint: "Anchor-33" 531 0 basechar 0
LayerCount: 2
Fore
SplineSet
286 46.5 m 128,-1,1
 210 105 210 105 174.5 202 c 128,-1,2
 139 299 139 299 139 419 c 0,3,4
 139 495 139 495 153 576 c 0,5,6
 176 709 176 709 246.5 833 c 128,-1,7
 317 957 317 957 424 1035.5 c 128,-1,8
 531 1114 531 1114 658 1114 c 0,9,10
 755 1114 755 1114 833.5 1073 c 128,-1,11
 912 1032 912 1032 945 943 c 1,12,-1
 1060 1580 l 1,13,-1
 1228 1580 l 1,14,-1
 990 234 l 2,15,16
 985 208 985 208 968 90 c 0,17,18
 965 66 965 66 954 -6 c 1,19,-1
 802 0 l 1,20,-1
 809 143 l 1,21,22
 733 56 733 56 659 22 c 128,-1,23
 585 -12 585 -12 479 -12 c 0,24,0
 362 -12 362 -12 286 46.5 c 128,-1,1
304 434 m 0,26,27
 304 349 304 349 327 277.5 c 128,-1,28
 350 206 350 206 399 162 c 128,-1,29
 448 118 448 118 524 118 c 0,30,31
 625 118 625 118 699.5 187 c 128,-1,32
 774 256 774 256 818 358.5 c 128,-1,33
 862 461 862 461 881 568 c 0,34,35
 892 632 892 632 892 693 c 0,36,37
 892 818 892 818 840.5 898 c 128,-1,38
 789 978 789 978 674 978 c 0,39,40
 580 978 580 978 504.5 912.5 c 128,-1,41
 429 847 429 847 380.5 748 c 128,-1,42
 332 649 332 649 314 548 c 0,43,25
 304 495 304 495 304 434 c 0,26,27
EndSplineSet
Substitution2: "'fwid' Full Widths lookup 32 subtable" uniFF44
Substitution2: "'smcp' Lowercase to Small Capitals lookup 27 subtable" d.sc
AlternateSubs2: "'aalt' Access All Alternates lookup 1 subtable" d.sc uniFF44
EndChar

StartChar: e
Encoding: 101 101 30
Width: 1200
GlyphClass: 2
Flags: W
AnchorPoint: "Anchor-37" 591 552 basechar 0
AnchorPoint: "Anchor-35" 690 1117 basechar 0
AnchorPoint: "Anchor-34" 513 0 basechar 0
AnchorPoint: "Anchor-33" 511 -16 basechar 0
LayerCount: 2
Fore
SplineSet
321 37 m 128,-1,1
 226 86 226 86 175 179 c 128,-1,2
 124 272 124 272 124 402 c 0,3,4
 124 475 124 475 140 554 c 0,5,6
 173 718 173 718 258.5 846 c 128,-1,7
 344 974 344 974 463.5 1045.5 c 128,-1,8
 583 1117 583 1117 713 1117 c 0,9,10
 880 1117 880 1117 975 1015 c 128,-1,11
 1070 913 1070 913 1070 710 c 0,12,13
 1070 627 1070 627 1052 525 c 1,14,-1
 295 427 l 1,15,16
 288 396 288 396 288 363 c 0,17,18
 288 258 288 258 363.5 200 c 128,-1,19
 439 142 439 142 561 142 c 0,20,21
 673 142 673 142 773 177.5 c 128,-1,22
 873 213 873 213 927 265 c 1,23,-1
 1011 153 l 1,24,25
 927 78 927 78 797.5 33 c 128,-1,26
 668 -12 668 -12 545 -12 c 0,27,0
 416 -12 416 -12 321 37 c 128,-1,1
915 647 m 1,28,29
 921 683 921 683 921 718 c 0,30,31
 921 792 921 792 893 849.5 c 128,-1,32
 865 907 865 907 814.5 939.5 c 128,-1,33
 764 972 764 972 699 972 c 0,34,35
 619 972 619 972 535 915.5 c 128,-1,36
 451 859 451 859 390 765.5 c 128,-1,37
 329 672 329 672 313 567 c 1,38,-1
 915 647 l 1,28,29
EndSplineSet
Substitution2: "'fwid' Full Widths lookup 32 subtable" uniFF45
Substitution2: "'smcp' Lowercase to Small Capitals lookup 27 subtable" e.sc
Substitution2: "'sinf' Scientific Inferiors lookup 14 subtable" uni2091
Substitution2: "'subs' Subscript lookup 13 subtable" uni2091
AlternateSubs2: "'aalt' Access All Alternates lookup 1 subtable" uni2091 e.sc uniFF45
EndChar

StartChar: f
Encoding: 102 102 31
Width: 1200
GlyphClass: 2
Flags: W
AnchorPoint: "Anchor-37" 658 790 basechar 0
AnchorPoint: "Anchor-35" 764 1580 basechar 0
AnchorPoint: "Anchor-33" 271 -313 basechar 0
LayerCount: 2
Fore
SplineSet
89 -165 m 1,0,-1
 246 -165 l 2,1,2
 296 -165 296 -165 323.5 -135.5 c 128,-1,3
 351 -106 351 -106 361.5 -70 c 128,-1,4
 372 -34 372 -34 383 29 c 2,5,-1
 538 888 l 1,6,-1
 248 888 l 1,7,-1
 273 1034 l 1,8,-1
 563 1034 l 1,9,-1
 597 1226 l 2,10,11
 622 1366 622 1366 678.5 1443 c 128,-1,12
 735 1520 735 1520 824 1550 c 128,-1,13
 913 1580 913 1580 1048 1580 c 0,14,15
 1150 1580 1150 1580 1247 1571 c 1,16,-1
 1230 1416 l 1,17,18
 1136 1424 1136 1424 1055 1424 c 0,19,20
 973 1424 973 1424 915.5 1409 c 128,-1,21
 858 1394 858 1394 819 1352 c 128,-1,22
 780 1310 780 1310 766 1232 c 2,23,-1
 731 1034 l 1,24,-1
 1061 1034 l 1,25,-1
 1036 888 l 1,26,-1
 706 888 l 1,27,-1
 545 -7 l 2,28,29
 516 -169 516 -169 459.5 -241 c 128,-1,30
 403 -313 403 -313 311 -313 c 2,31,-1
 61 -313 l 1,32,-1
 89 -165 l 1,0,-1
EndSplineSet
Substitution2: "Single Substitution lookup 73 subtable" f.alternate
Substitution2: "'fwid' Full Widths lookup 32 subtable" uniFF46
Substitution2: "'smcp' Lowercase to Small Capitals lookup 27 subtable" f.sc
AlternateSubs2: "'aalt' Access All Alternates lookup 1 subtable" f.sc uniFF46 f.alternate
EndChar

StartChar: g
Encoding: 103 103 32
Width: 1200
GlyphClass: 2
Flags: W
AnchorPoint: "Anchor-35" 687 1100 basechar 0
AnchorPoint: "Anchor-33" 384 -416 basechar 0
LayerCount: 2
Fore
SplineSet
231.5 -380.5 m 128,-1,1
 156 -345 156 -345 114 -283 c 128,-1,2
 72 -221 72 -221 72 -144 c 0,3,4
 72 -117 72 -117 76 -96 c 1,5,-1
 234 -96 l 1,6,7
 231 -113 231 -113 231 -127 c 0,8,9
 231 -205 231 -205 298.5 -243.5 c 128,-1,10
 366 -282 366 -282 466 -282 c 0,11,12
 623 -282 623 -282 720 -175.5 c 128,-1,13
 817 -69 817 -69 859 168 c 1,14,-1
 841 168 l 1,15,16
 783 83 783 83 684.5 40.5 c 128,-1,17
 586 -2 586 -2 483 -2 c 0,18,19
 359 -2 359 -2 278.5 52.5 c 128,-1,20
 198 107 198 107 160.5 200 c 128,-1,21
 123 293 123 293 123 410 c 0,22,23
 123 474 123 474 136 552 c 0,24,25
 162 702 162 702 229.5 828 c 128,-1,26
 297 954 297 954 417.5 1033 c 128,-1,27
 538 1112 538 1112 709 1112 c 0,28,29
 913 1112 913 1112 979 979 c 1,30,-1
 987 961 l 1,31,-1
 1017 1100 l 1,32,-1
 1187 1100 l 1,33,34
 1160 1001 1160 1001 1145 920 c 2,35,-1
 1000 98 l 2,36,37
 967 -87 967 -87 895 -199.5 c 128,-1,38
 823 -312 823 -312 703 -364 c 128,-1,39
 583 -416 583 -416 404 -416 c 0,40,0
 307 -416 307 -416 231.5 -380.5 c 128,-1,1
295 436 m 0,42,43
 295 309 295 309 346.5 222.5 c 128,-1,44
 398 136 398 136 518 136 c 0,45,46
 621 136 621 136 704 201.5 c 128,-1,47
 787 267 787 267 839 364.5 c 128,-1,48
 891 462 891 462 908 559 c 0,49,50
 917 609 917 609 917 661 c 0,51,52
 917 749 917 749 891 824 c 128,-1,53
 865 899 865 899 809 945.5 c 128,-1,54
 753 992 753 992 668 992 c 0,55,56
 563 992 563 992 487 923 c 128,-1,57
 411 854 411 854 367 755.5 c 128,-1,58
 323 657 323 657 306 562 c 0,59,41
 295 502 295 502 295 436 c 0,42,43
EndSplineSet
Substitution2: "'ss01' Style Set 1 lookup 41 subtable" g.alt
Substitution2: "'fwid' Full Widths lookup 32 subtable" uniFF47
Substitution2: "'smcp' Lowercase to Small Capitals lookup 27 subtable" g.sc
AlternateSubs2: "'aalt' Access All Alternates lookup 1 subtable" g.sc uniFF47 g.alt
EndChar

StartChar: h
Encoding: 104 104 33
Width: 1200
GlyphClass: 2
Flags: W
AnchorPoint: "Anchor-37" 648 790 basechar 0
AnchorPoint: "Anchor-35" 782 1580 basechar 0
AnchorPoint: "Anchor-33" 503 0 basechar 0
LayerCount: 2
Fore
SplineSet
342 1580 m 1,0,-1
 516 1580 l 1,1,-1
 401 947 l 1,2,3
 460 1034 460 1034 556.5 1074.5 c 128,-1,4
 653 1115 653 1115 759 1115 c 0,5,6
 923 1115 923 1115 1001.5 1038.5 c 128,-1,7
 1080 962 1080 962 1080 821 c 0,8,9
 1080 770 1080 770 1069 706 c 2,10,-1
 943 0 l 1,11,-1
 769 0 l 1,12,-1
 883 648 l 2,13,14
 900 750 900 750 900 798 c 0,15,16
 900 883 900 883 859 928.5 c 128,-1,17
 818 974 818 974 717 974 c 0,18,19
 561 974 561 974 460.5 833.5 c 128,-1,20
 360 693 360 693 320 470 c 2,21,-1
 237 0 l 1,22,-1
 63 0 l 1,23,-1
 342 1580 l 1,0,-1
EndSplineSet
Substitution2: "'fwid' Full Widths lookup 32 subtable" uniFF48
Substitution2: "'smcp' Lowercase to Small Capitals lookup 27 subtable" h.sc
Substitution2: "'sinf' Scientific Inferiors lookup 14 subtable" uni2095
Substitution2: "'subs' Subscript lookup 13 subtable" uni2095
AlternateSubs2: "'aalt' Access All Alternates lookup 1 subtable" uni2095 h.sc uniFF48
EndChar

StartChar: i
Encoding: 105 105 34
Width: 1200
GlyphClass: 2
Flags: W
AnchorPoint: "Anchor-37" 552 792 basechar 0
AnchorPoint: "Anchor-35" 704 1614 basechar 0
AnchorPoint: "Anchor-33" 462 0 basechar 0
LayerCount: 2
Fore
SplineSet
482 45.5 m 128,-1,1
 414 111 414 111 414 216 c 0,2,3
 414 262 414 262 425 322 c 2,4,-1
 529 908 l 1,5,-1
 213 836 l 1,6,-1
 238 990 l 1,7,-1
 742 1108 l 1,8,-1
 595 322 l 2,9,10
 586 277 586 277 586 245 c 0,11,12
 586 178 586 178 622.5 154 c 128,-1,13
 659 130 659 130 740 130 c 0,14,15
 803 130 803 130 860 142.5 c 128,-1,16
 917 155 917 155 982 185 c 1,17,-1
 963 22 l 1,18,19
 894 0 894 0 839.5 -10 c 128,-1,20
 785 -20 785 -20 727 -20 c 0,21,0
 550 -20 550 -20 482 45.5 c 128,-1,1
619.5 1557.5 m 128,-1,23
 651 1584 651 1584 719 1584 c 0,24,25
 782 1584 782 1584 811.5 1561 c 128,-1,26
 841 1538 841 1538 841 1487 c 0,27,28
 841 1468 841 1468 836 1440 c 0,29,30
 824 1373 824 1373 792.5 1346.5 c 128,-1,31
 761 1320 761 1320 693 1320 c 0,32,33
 630 1320 630 1320 600.5 1343 c 128,-1,34
 571 1366 571 1366 571 1417 c 0,35,36
 571 1436 571 1436 576 1464 c 0,37,22
 588 1531 588 1531 619.5 1557.5 c 128,-1,23
EndSplineSet
Substitution2: "Single Substitution lookup 61 subtable" dotlessi
Substitution2: "'fwid' Full Widths lookup 32 subtable" uniFF49
Substitution2: "'smcp' Lowercase to Small Capitals lookup 27 subtable" i.sc
Substitution2: "'locl' Localized Forms in Latin lookup 7 per glyph data 4" i.loclTRK
Substitution2: "'locl' Localized Forms in Latin lookup 7 per glyph data 3" i.loclTRK
Substitution2: "'locl' Localized Forms in Latin lookup 7 per glyph data 2" i.loclTRK
Substitution2: "'locl' Localized Forms in Latin lookup 7 per glyph data 1" i.loclTRK
Substitution2: "'locl' Localized Forms in Latin lookup 7 per glyph data 0" i.loclTRK
AlternateSubs2: "'aalt' Access All Alternates lookup 1 subtable" i.loclTRK i.sc uniFF49
EndChar

StartChar: j
Encoding: 106 106 35
Width: 1200
GlyphClass: 2
Flags: W
AnchorPoint: "Anchor-37" 653 590 basechar 0
AnchorPoint: "Anchor-35" 862 1582 basechar 0
LayerCount: 2
Fore
SplineSet
207 -81 m 0,1,2
 207 -166 207 -166 248 -210 c 128,-1,3
 289 -254 289 -254 366 -254 c 0,4,5
 429 -254 429 -254 482.5 -217.5 c 128,-1,6
 536 -181 536 -181 570.5 -124.5 c 128,-1,7
 605 -68 605 -68 615 -12 c 2,8,-1
 775 908 l 1,9,-1
 406 817 l 1,10,-1
 430 970 l 1,11,-1
 979 1113 l 1,12,-1
 782 -20 l 2,13,14
 761 -138 761 -138 702.5 -224 c 128,-1,15
 644 -310 644 -310 556.5 -355 c 128,-1,16
 469 -400 469 -400 363 -400 c 0,17,18
 266 -400 266 -400 193 -364.5 c 128,-1,19
 120 -329 120 -329 80.5 -260 c 128,-1,20
 41 -191 41 -191 41 -94 c 0,21,22
 41 -50 41 -50 50 0 c 1,23,-1
 214 -4 l 1,24,0
 207 -43 207 -43 207 -81 c 0,1,2
842.5 1557.5 m 128,-1,26
 874 1584 874 1584 942 1584 c 0,27,28
 1005 1584 1005 1584 1034.5 1561 c 128,-1,29
 1064 1538 1064 1538 1064 1487 c 0,30,31
 1064 1468 1064 1468 1059 1440 c 0,32,33
 1047 1373 1047 1373 1015.5 1346.5 c 128,-1,34
 984 1320 984 1320 916 1320 c 0,35,36
 853 1320 853 1320 823.5 1343 c 128,-1,37
 794 1366 794 1366 794 1417 c 0,38,39
 794 1436 794 1436 799 1464 c 0,40,25
 811 1531 811 1531 842.5 1557.5 c 128,-1,26
EndSplineSet
Substitution2: "Single Substitution lookup 61 subtable" uni0237
Substitution2: "'ss03' Style Set 3 lookup 43 subtable" j.alt
Substitution2: "'fwid' Full Widths lookup 32 subtable" uniFF4A
Substitution2: "'smcp' Lowercase to Small Capitals lookup 27 subtable" j.sc
AlternateSubs2: "'aalt' Access All Alternates lookup 1 subtable" j.sc uniFF4A j.alt
EndChar

StartChar: k
Encoding: 107 107 36
Width: 1200
GlyphClass: 2
Flags: W
AnchorPoint: "Anchor-37" 614 790 basechar 0
AnchorPoint: "Anchor-35" 746 1568 basechar 0
AnchorPoint: "Anchor-33" 469 0 basechar 0
LayerCount: 2
Fore
SplineSet
384 495 m 1,0,-1
 297 0 l 1,1,-1
 129 0 l 1,2,-1
 408 1580 l 1,3,-1
 576 1580 l 1,4,-1
 403 601 l 1,5,-1
 927 1100 l 1,6,-1
 1139 1100 l 1,7,-1
 556 552 l 1,8,-1
 979 0 l 1,9,-1
 769 0 l 1,10,-1
 384 495 l 1,0,-1
EndSplineSet
Substitution2: "'fwid' Full Widths lookup 32 subtable" uniFF4B
Substitution2: "'smcp' Lowercase to Small Capitals lookup 27 subtable" k.sc
Substitution2: "'sinf' Scientific Inferiors lookup 14 subtable" uni2096
Substitution2: "'subs' Subscript lookup 13 subtable" uni2096
AlternateSubs2: "'aalt' Access All Alternates lookup 1 subtable" uni2096 k.sc uniFF4B
EndChar

StartChar: l
Encoding: 108 108 37
Width: 1200
GlyphClass: 2
Flags: W
AnchorPoint: "Anchor-38" 1288 1588 basechar 0
AnchorPoint: "Anchor-37" 615 778 basechar 0
AnchorPoint: "Anchor-35" 791 1580 basechar 0
AnchorPoint: "Anchor-33" 510 -12 basechar 0
LayerCount: 2
Fore
SplineSet
524 -1 m 128,-1,1
 461 22 461 22 432 71.5 c 128,-1,2
 403 121 403 121 403 202 c 0,3,4
 403 255 403 255 415 324 c 2,5,-1
 592 1388 l 1,6,-1
 197 1294 l 1,7,-1
 222 1444 l 1,8,-1
 793 1580 l 1,9,-1
 570 329 l 2,10,11
 565 299 565 299 565 281 c 0,12,13
 565 223 565 223 595 194.5 c 128,-1,14
 625 166 625 166 668.5 159 c 128,-1,15
 712 152 712 152 777 152 c 0,16,17
 908 152 908 152 1030 225 c 1,18,-1
 1007 42 l 1,19,20
 930 10 930 10 844.5 -7 c 128,-1,21
 759 -24 759 -24 690 -24 c 0,22,0
 587 -24 587 -24 524 -1 c 128,-1,1
EndSplineSet
Substitution2: "'fwid' Full Widths lookup 32 subtable" uniFF4C
Substitution2: "'smcp' Lowercase to Small Capitals lookup 27 subtable" l.sc
Substitution2: "'sinf' Scientific Inferiors lookup 14 subtable" uni2097
Substitution2: "'subs' Subscript lookup 13 subtable" uni2097
AlternateSubs2: "'aalt' Access All Alternates lookup 1 subtable" uni2097 l.sc uniFF4C
EndChar

StartChar: m
Encoding: 109 109 38
Width: 1200
GlyphClass: 2
Flags: W
AnchorPoint: "Anchor-37" 605 560 basechar 0
AnchorPoint: "Anchor-35" 707 1128 basechar 0
AnchorPoint: "Anchor-33" 502 0 basechar 0
LayerCount: 2
Fore
SplineSet
182 1100 m 1,1,-1
 342 1100 l 1,2,-1
 331 977 l 1,3,4
 370 1050 370 1050 421.5 1083 c 128,-1,5
 473 1116 473 1116 539 1116 c 0,6,7
 604 1116 604 1116 646 1071 c 128,-1,8
 688 1026 688 1026 681 916 c 1,9,10
 713 998 713 998 755 1041.5 c 128,-1,11
 797 1085 797 1085 843.5 1099.5 c 128,-1,12
 890 1114 890 1114 948 1114 c 256,13,14
 1006 1114 1006 1114 1052 1084 c 128,-1,15
 1098 1054 1098 1054 1124.5 996 c 128,-1,16
 1151 938 1151 938 1151 859 c 0,17,18
 1151 813 1151 813 1143 770 c 2,19,-1
 1007 0 l 1,20,-1
 826 0 l 1,21,-1
 956 740 l 2,22,23
 970 822 970 822 970 869 c 0,24,25
 970 922 970 922 953.5 946 c 128,-1,26
 937 970 937 970 902 970 c 0,27,28
 842 970 842 970 796 918 c 128,-1,29
 750 866 750 866 729 748 c 2,30,-1
 597 0 l 1,31,-1
 414 0 l 1,32,-1
 544 740 l 2,33,34
 555 806 555 806 555 847 c 0,35,36
 555 970 555 970 473 970 c 0,37,38
 416 970 416 970 377 919 c 128,-1,39
 338 868 338 868 317 748 c 2,40,-1
 185 0 l 1,41,-1
 -1 0 l 1,42,-1
 148 846 l 2,43,0
 167 957 167 957 182 1100 c 1,1,-1
EndSplineSet
Substitution2: "'fwid' Full Widths lookup 32 subtable" uniFF4D
Substitution2: "'smcp' Lowercase to Small Capitals lookup 27 subtable" m.sc
Substitution2: "'sinf' Scientific Inferiors lookup 14 subtable" uni2098
Substitution2: "'subs' Subscript lookup 13 subtable" uni2098
AlternateSubs2: "'aalt' Access All Alternates lookup 1 subtable" uni2098 m.sc uniFF4D
EndChar

StartChar: n
Encoding: 110 110 39
Width: 1200
GlyphClass: 2
Flags: W
AnchorPoint: "Anchor-37" 601 556 basechar 0
AnchorPoint: "Anchor-35" 716 1116 basechar 0
AnchorPoint: "Anchor-33" 501 0 basechar 0
LayerCount: 2
Fore
SplineSet
241 989 m 0,1,2
 248 1064 248 1064 252 1100 c 1,3,-1
 407 1100 l 1,4,-1
 390 905 l 1,5,6
 467 1007 467 1007 565.5 1063.5 c 128,-1,7
 664 1120 664 1120 768 1120 c 0,8,9
 917 1120 917 1120 994.5 1033 c 128,-1,10
 1072 946 1072 946 1072 791 c 0,11,12
 1072 722 1072 722 1057 644 c 2,13,-1
 933 0 l 1,14,-1
 765 0 l 1,15,-1
 877 576 l 2,16,17
 898 686 898 686 898 754 c 0,18,19
 898 853 898 853 855.5 908.5 c 128,-1,20
 813 964 813 964 713 964 c 0,21,22
 608 964 608 964 528.5 895 c 128,-1,23
 449 826 449 826 400 719 c 128,-1,24
 351 612 351 612 330 494 c 2,25,-1
 243 0 l 1,26,-1
 75 0 l 1,27,-1
 220 820 l 2,28,0
 232 887 232 887 241 989 c 0,1,2
EndSplineSet
Substitution2: "'fwid' Full Widths lookup 32 subtable" uniFF4E
Substitution2: "'smcp' Lowercase to Small Capitals lookup 27 subtable" n.sc
Substitution2: "'sinf' Scientific Inferiors lookup 14 subtable" uni2099
Substitution2: "'subs' Subscript lookup 13 subtable" uni2099
AlternateSubs2: "'aalt' Access All Alternates lookup 1 subtable" uni2099 n.sc uniFF4E
EndChar

StartChar: o
Encoding: 111 111 40
Width: 1200
GlyphClass: 2
Flags: W
AnchorPoint: "Anchor-38" 1064 1108 basechar 0
AnchorPoint: "Anchor-37" 600 552 basechar 0
AnchorPoint: "Anchor-35" 700 1108 basechar 0
AnchorPoint: "Anchor-34" 502 6 basechar 0
AnchorPoint: "Anchor-33" 501 -12 basechar 0
LayerCount: 2
Fore
SplineSet
295.5 38.5 m 128,-1,1
 209 89 209 89 164 184 c 128,-1,2
 119 279 119 279 119 409 c 0,3,4
 119 484 119 484 134 568 c 0,5,6
 165 737 165 737 243 861.5 c 128,-1,7
 321 986 321 986 436.5 1053 c 128,-1,8
 552 1120 552 1120 693 1120 c 0,9,10
 814 1120 814 1120 900.5 1070 c 128,-1,11
 987 1020 987 1020 1032 926 c 128,-1,12
 1077 832 1077 832 1077 702 c 0,13,14
 1077 628 1077 628 1062 544 c 0,15,16
 1031 374 1031 374 953 248.5 c 128,-1,17
 875 123 875 123 760 55.5 c 128,-1,18
 645 -12 645 -12 504 -12 c 0,19,0
 382 -12 382 -12 295.5 38.5 c 128,-1,1
294 400 m 0,21,22
 294 273 294 273 348.5 202.5 c 128,-1,23
 403 132 403 132 503 132 c 0,24,25
 595 132 595 132 673.5 184.5 c 128,-1,26
 752 237 752 237 807 333.5 c 128,-1,27
 862 430 862 430 886 560 c 0,28,29
 899 632 899 632 899 697 c 0,30,31
 899 829 899 829 842 901.5 c 128,-1,32
 785 974 785 974 679 974 c 0,33,34
 591 974 591 974 515.5 920.5 c 128,-1,35
 440 867 440 867 386 767.5 c 128,-1,36
 332 668 332 668 307 534 c 0,37,20
 294 463 294 463 294 400 c 0,21,22
EndSplineSet
Substitution2: "Single Substitution lookup 63 subtable" ordmasculine
Substitution2: "'fwid' Full Widths lookup 32 subtable" uniFF4F
Substitution2: "'smcp' Lowercase to Small Capitals lookup 27 subtable" o.sc
Substitution2: "'sinf' Scientific Inferiors lookup 14 subtable" uni2092
Substitution2: "'subs' Subscript lookup 13 subtable" uni2092
AlternateSubs2: "'aalt' Access All Alternates lookup 1 subtable" uni2092 ordmasculine o.sc uniFF4F
EndChar

StartChar: p
Encoding: 112 112 41
Width: 1200
GlyphClass: 2
Flags: W
AnchorPoint: "Anchor-37" 550 372 basechar 0
AnchorPoint: "Anchor-35" 693 1126 basechar 0
AnchorPoint: "Anchor-33" 475 6 basechar 0
LayerCount: 2
Fore
SplineSet
235 992.5 m 128,-1,1
 243 1052 243 1052 249 1106 c 1,2,-1
 410 1100 l 1,3,-1
 384 923 l 1,4,5
 530 1120 530 1120 733 1120 c 0,6,7
 848 1120 848 1120 921.5 1061 c 128,-1,8
 995 1002 995 1002 1028 906 c 128,-1,9
 1061 810 1061 810 1061 693 c 0,10,11
 1061 617 1061 617 1047 539 c 0,12,13
 1022 398 1022 398 955.5 272.5 c 128,-1,14
 889 147 889 147 778.5 67.5 c 128,-1,15
 668 -12 668 -12 521 -12 c 0,16,17
 424 -12 424 -12 361.5 26 c 128,-1,18
 299 64 299 64 258 141 c 1,19,-1
 163 -380 l 1,20,-1
 -5 -380 l 1,21,-1
 214 862 l 2,22,0
 227 933 227 933 235 992.5 c 128,-1,1
308 408 m 0,24,25
 308 289 308 289 356.5 207.5 c 128,-1,26
 405 126 405 126 515 126 c 0,27,28
 609 126 609 126 685.5 185.5 c 128,-1,29
 762 245 762 245 811.5 341.5 c 128,-1,30
 861 438 861 438 881 549 c 0,31,32
 893 621 893 621 893 683 c 0,33,34
 893 809 893 809 847.5 892.5 c 128,-1,35
 802 976 802 976 699 976 c 0,36,37
 602 976 602 976 521.5 905 c 128,-1,38
 441 834 441 834 388 727.5 c 128,-1,39
 335 621 335 621 317 517 c 0,40,23
 308 466 308 466 308 408 c 0,24,25
EndSplineSet
Substitution2: "'fwid' Full Widths lookup 32 subtable" uniFF50
Substitution2: "'smcp' Lowercase to Small Capitals lookup 27 subtable" p.sc
Substitution2: "'sinf' Scientific Inferiors lookup 14 subtable" uni209A
Substitution2: "'subs' Subscript lookup 13 subtable" uni209A
AlternateSubs2: "'aalt' Access All Alternates lookup 1 subtable" uni209A p.sc uniFF50
EndChar

StartChar: q
Encoding: 113 113 42
Width: 1200
GlyphClass: 2
Flags: W
AnchorPoint: "Anchor-37" 567 366 basechar 0
AnchorPoint: "Anchor-35" 697 1116 basechar 0
AnchorPoint: "Anchor-33" 434 -384 basechar 0
LayerCount: 2
Fore
SplineSet
656 11 m 128,-1,1
 584 -20 584 -20 481 -20 c 0,2,3
 363 -20 363 -20 286.5 38.5 c 128,-1,4
 210 97 210 97 175.5 193 c 128,-1,5
 141 289 141 289 141 406 c 0,6,7
 141 481 141 481 155 560 c 0,8,9
 180 702 180 702 247 830.5 c 128,-1,10
 314 959 314 959 417 1039.5 c 128,-1,11
 520 1120 520 1120 647 1120 c 0,12,13
 764 1120 764 1120 837 1082.5 c 128,-1,14
 910 1045 910 1045 946 957 c 1,15,-1
 980 1100 l 1,16,-1
 1143 1094 l 1,17,18
 1137 1070 1137 1070 1135 1058 c 0,19,20
 1109 945 1109 945 1097 878 c 2,21,-1
 875 -382 l 1,22,-1
 707 -382 l 1,23,-1
 799 125 l 1,24,0
 728 42 728 42 656 11 c 128,-1,1
305 390 m 0,26,27
 305 257 305 257 360 184.5 c 128,-1,28
 415 112 415 112 520 112 c 0,29,30
 608 112 608 112 683 179 c 128,-1,31
 758 246 758 246 808 349 c 128,-1,32
 858 452 858 452 877 560 c 0,33,34
 890 634 890 634 890 700 c 0,35,36
 890 839 890 839 831.5 910.5 c 128,-1,37
 773 982 773 982 673 982 c 0,38,39
 590 982 590 982 518 928 c 128,-1,40
 446 874 446 874 394.5 773 c 128,-1,41
 343 672 343 672 319 536 c 0,42,25
 305 454 305 454 305 390 c 0,26,27
EndSplineSet
Substitution2: "'fwid' Full Widths lookup 32 subtable" uniFF51
Substitution2: "'smcp' Lowercase to Small Capitals lookup 27 subtable" q.sc
AlternateSubs2: "'aalt' Access All Alternates lookup 1 subtable" q.sc uniFF51
EndChar

StartChar: r
Encoding: 114 114 43
Width: 1200
GlyphClass: 2
Flags: W
AnchorPoint: "Anchor-37" 605 564 basechar 0
AnchorPoint: "Anchor-35" 702 1100 basechar 0
AnchorPoint: "Anchor-33" 506 0 basechar 0
LayerCount: 2
Fore
SplineSet
342 348 m 0,1,2
 352 408 352 408 362.5 470.5 c 128,-1,3
 373 533 373 533 383 586 c 0,4,5
 400 681 400 681 407 731.5 c 128,-1,6
 414 782 414 782 414 828 c 0,7,8
 414 878 414 878 406 922 c 1,9,-1
 139 843 l 1,10,-1
 169 1009 l 1,11,-1
 535 1108 l 1,12,13
 553 1074 553 1074 561 1038.5 c 128,-1,14
 569 1003 569 1003 570 921 c 1,15,16
 636 1023 636 1023 724 1071.5 c 128,-1,17
 812 1120 812 1120 897 1120 c 0,18,19
 970 1120 970 1120 1045 1087.5 c 128,-1,20
 1120 1055 1120 1055 1160 1010 c 1,21,-1
 1054 896 l 1,22,23
 1031 925 1031 925 980.5 949.5 c 128,-1,24
 930 974 930 974 864 974 c 0,25,26
 777 974 777 974 714 919.5 c 128,-1,27
 651 865 651 865 606.5 754 c 128,-1,28
 562 643 562 643 531 468 c 2,29,-1
 448 0 l 1,30,-1
 281 0 l 1,31,0
 295 74 295 74 342 348 c 0,1,2
EndSplineSet
Substitution2: "Single Substitution lookup 74 subtable" r.alternate
Substitution2: "'fwid' Full Widths lookup 32 subtable" uniFF52
Substitution2: "'smcp' Lowercase to Small Capitals lookup 27 subtable" r.sc
AlternateSubs2: "'aalt' Access All Alternates lookup 1 subtable" r.sc uniFF52 r.alternate
EndChar

StartChar: s
Encoding: 115 115 44
Width: 1200
GlyphClass: 2
Flags: W
AnchorPoint: "Anchor-37" 596 554 basechar 0
AnchorPoint: "Anchor-35" 685 1118 basechar 0
AnchorPoint: "Anchor-33" 498 -2 basechar 0
LayerCount: 2
Fore
SplineSet
247.5 44.5 m 128,-1,1
 157 97 157 97 95 194 c 1,2,-1
 219 307 l 1,3,4
 281 231 281 231 342.5 194.5 c 128,-1,5
 404 158 404 158 492 158 c 0,6,7
 620 158 620 158 705 189.5 c 128,-1,8
 790 221 790 221 808 307 c 0,9,10
 811 324 811 324 811 336 c 0,11,12
 811 370 811 370 790.5 391 c 128,-1,13
 770 412 770 412 738.5 423.5 c 128,-1,14
 707 435 707 435 644 451 c 0,15,16
 608 459 608 459 558 474 c 0,17,18
 463 503 463 503 395.5 537 c 128,-1,19
 328 571 328 571 285.5 624 c 128,-1,20
 243 677 243 677 243 752 c 0,21,22
 243 788 243 788 251 821 c 0,23,24
 289 986 289 986 410.5 1049 c 128,-1,25
 532 1112 532 1112 715 1112 c 0,26,27
 927 1112 927 1112 1061 953 c 1,28,-1
 939 854 l 1,29,30
 831 955 831 955 705 955 c 0,31,32
 598 955 598 955 520.5 914.5 c 128,-1,33
 443 874 443 874 425 804 c 0,34,35
 421 791 421 791 421 776 c 0,36,37
 421 730 421 730 461 697 c 128,-1,38
 501 664 501 664 558.5 644 c 128,-1,39
 616 624 616 624 696 604 c 0,40,41
 813 575 813 575 893.5 520 c 128,-1,42
 974 465 974 465 974 353 c 0,43,44
 974 321 974 321 965 282 c 0,45,46
 930 127 930 127 798.5 59.5 c 128,-1,47
 667 -8 667 -8 484 -8 c 0,48,0
 338 -8 338 -8 247.5 44.5 c 128,-1,1
EndSplineSet
Substitution2: "'fwid' Full Widths lookup 32 subtable" uniFF53
Substitution2: "'smcp' Lowercase to Small Capitals lookup 27 subtable" s.sc
Substitution2: "'sinf' Scientific Inferiors lookup 14 subtable" uni209B
Substitution2: "'subs' Subscript lookup 13 subtable" uni209B
AlternateSubs2: "'aalt' Access All Alternates lookup 1 subtable" uni209B s.sc uniFF53
EndChar

StartChar: t
Encoding: 116 116 45
Width: 1200
GlyphClass: 2
Flags: W
AnchorPoint: "Anchor-38" 1105 1450 basechar 0
AnchorPoint: "Anchor-37" 650 692 basechar 0
AnchorPoint: "Anchor-35" 750 1500 basechar 0
AnchorPoint: "Anchor-33" 595 -6 basechar 0
LayerCount: 2
Fore
SplineSet
472 36 m 128,-1,1
 408 88 408 88 408 184 c 0,2,3
 408 213 408 213 414 246 c 2,4,-1
 540 956 l 1,5,-1
 250 956 l 1,6,-1
 275 1100 l 1,7,-1
 565 1100 l 1,8,-1
 636 1500 l 1,9,-1
 804 1500 l 1,10,-1
 733 1100 l 1,11,-1
 1037 1100 l 1,12,-1
 1012 956 l 1,13,-1
 708 956 l 1,14,-1
 591 294 l 2,15,16
 584 252 584 252 584 231 c 0,17,18
 584 193 584 193 599 172.5 c 128,-1,19
 614 152 614 152 646.5 144 c 128,-1,20
 679 136 679 136 737 136 c 0,21,22
 772 136 772 136 833.5 146.5 c 128,-1,23
 895 157 895 157 950 169 c 1,24,-1
 933 15 l 1,25,26
 872 4 872 4 794 -6 c 128,-1,27
 716 -16 716 -16 664 -16 c 0,28,0
 536 -16 536 -16 472 36 c 128,-1,1
EndSplineSet
Substitution2: "'fwid' Full Widths lookup 32 subtable" uniFF54
Substitution2: "'smcp' Lowercase to Small Capitals lookup 27 subtable" t.sc
Substitution2: "'sinf' Scientific Inferiors lookup 14 subtable" uni209C
Substitution2: "'subs' Subscript lookup 13 subtable" uni209C
AlternateSubs2: "'aalt' Access All Alternates lookup 1 subtable" uni209C t.sc uniFF54
EndChar

StartChar: u
Encoding: 117 117 46
Width: 1200
GlyphClass: 2
Flags: W
AnchorPoint: "Anchor-38" 952 1100 basechar 0
AnchorPoint: "Anchor-37" 598 542 basechar 0
AnchorPoint: "Anchor-35" 694 1102 basechar 0
AnchorPoint: "Anchor-34" 858 0 basechar 0
AnchorPoint: "Anchor-33" 513 0 basechar 0
LayerCount: 2
Fore
SplineSet
198.5 56.5 m 128,-1,1
 126 127 126 127 126 261 c 0,2,3
 126 319 126 319 138 386 c 2,4,-1
 264 1100 l 1,5,-1
 432 1100 l 1,6,-1
 316 442 l 2,7,8
 298 343 298 343 298 289 c 0,9,10
 298 208 298 208 337.5 165 c 128,-1,11
 377 122 377 122 475 122 c 0,12,13
 580 122 580 122 658 178 c 128,-1,14
 736 234 736 234 783 322 c 128,-1,15
 830 410 830 410 848 510 c 2,16,-1
 952 1100 l 1,17,-1
 1124 1100 l 1,18,-1
 971 232 l 2,19,20
 962 184 962 184 948 79 c 2,21,-1
 937 0 l 1,22,-1
 778 0 l 1,23,-1
 798 141 l 1,24,25
 663 -14 663 -14 428 -14 c 0,26,0
 271 -14 271 -14 198.5 56.5 c 128,-1,1
EndSplineSet
Substitution2: "'fwid' Full Widths lookup 32 subtable" uniFF55
Substitution2: "'smcp' Lowercase to Small Capitals lookup 27 subtable" u.sc
AlternateSubs2: "'aalt' Access All Alternates lookup 1 subtable" u.sc uniFF55
EndChar

StartChar: v
Encoding: 118 118 47
Width: 1200
GlyphClass: 2
Flags: W
AnchorPoint: "Anchor-37" 600 550 basechar 0
AnchorPoint: "Anchor-35" 697 1100 basechar 0
AnchorPoint: "Anchor-33" 503 0 basechar 0
LayerCount: 2
Fore
SplineSet
256 1100 m 1,0,-1
 448 1100 l 1,1,-1
 542 234 l 1,2,-1
 954 1100 l 1,3,-1
 1140 1100 l 1,4,-1
 600 0 l 1,5,-1
 408 0 l 1,6,-1
 256 1100 l 1,0,-1
EndSplineSet
Substitution2: "'fwid' Full Widths lookup 32 subtable" uniFF56
Substitution2: "'smcp' Lowercase to Small Capitals lookup 27 subtable" v.sc
AlternateSubs2: "'aalt' Access All Alternates lookup 1 subtable" v.sc uniFF56
EndChar

StartChar: w
Encoding: 119 119 48
Width: 1200
GlyphClass: 2
Flags: W
AnchorPoint: "Anchor-37" 599 550 basechar 0
AnchorPoint: "Anchor-35" 698 1100 basechar 0
AnchorPoint: "Anchor-33" 504 0 basechar 0
LayerCount: 2
Fore
SplineSet
175 1100 m 1,0,-1
 345 1100 l 1,1,-1
 304 180 l 1,2,-1
 310 180 l 1,3,-1
 589 910 l 1,4,-1
 735 910 l 1,5,-1
 758 180 l 1,6,-1
 764 180 l 1,7,-1
 1047 1100 l 1,8,-1
 1221 1100 l 1,9,-1
 831 0 l 1,10,-1
 663 0 l 1,11,-1
 629 700 l 1,12,-1
 347 0 l 1,13,-1
 173 0 l 1,14,-1
 175 1100 l 1,0,-1
EndSplineSet
Substitution2: "'fwid' Full Widths lookup 32 subtable" uniFF57
Substitution2: "'smcp' Lowercase to Small Capitals lookup 27 subtable" w.sc
AlternateSubs2: "'aalt' Access All Alternates lookup 1 subtable" w.sc uniFF57
EndChar

StartChar: x
Encoding: 120 120 49
Width: 1200
GlyphClass: 2
Flags: W
AnchorPoint: "Anchor-37" 600 550 basechar 0
AnchorPoint: "Anchor-35" 697 1100 basechar 0
AnchorPoint: "Anchor-33" 503 0 basechar 0
LayerCount: 2
Fore
SplineSet
506 550 m 1,0,-1
 273 1100 l 1,1,-1
 457 1100 l 1,2,-1
 621 692 l 1,3,-1
 951 1100 l 1,4,-1
 1129 1100 l 1,5,-1
 700 562 l 1,6,-1
 947 0 l 1,7,-1
 759 0 l 1,8,-1
 582 426 l 1,9,-1
 237 0 l 1,10,-1
 55 0 l 1,11,-1
 506 550 l 1,0,-1
EndSplineSet
Substitution2: "'fwid' Full Widths lookup 32 subtable" uniFF58
Substitution2: "'smcp' Lowercase to Small Capitals lookup 27 subtable" x.sc
Substitution2: "'sinf' Scientific Inferiors lookup 14 subtable" uni2093
Substitution2: "'subs' Subscript lookup 13 subtable" uni2093
AlternateSubs2: "'aalt' Access All Alternates lookup 1 subtable" uni2093 x.sc uniFF58
EndChar

StartChar: y
Encoding: 121 121 50
Width: 1200
GlyphClass: 2
Flags: W
AnchorPoint: "Anchor-37" 565 350 basechar 0
AnchorPoint: "Anchor-35" 701 1100 basechar 0
AnchorPoint: "Anchor-33" 449 -328 basechar 0
LayerCount: 2
Fore
SplineSet
103 -229.5 m 128,-1,1
 171 -233 171 -233 200 -234 c 0,2,3
 264 -234 264 -234 311 -198 c 128,-1,4
 358 -162 358 -162 384 -111.5 c 128,-1,5
 410 -61 410 -61 418 -16 c 0,6,7
 420 -7 420 -7 420 22 c 0,8,9
 420 120 420 120 379 379 c 0,10,11
 366 447 366 447 325 677 c 0,12,13
 270 993 270 993 248 1100 c 1,14,-1
 428 1100 l 1,15,-1
 562 252 l 1,16,-1
 976 1100 l 1,17,-1
 1152 1100 l 1,18,19
 933 652 933 652 850 477 c 0,20,21
 800 380 800 380 699 156 c 0,22,23
 685 125 685 125 644 37.5 c 128,-1,24
 603 -50 603 -50 585 -85 c 0,25,26
 508 -221 508 -221 434 -289 c 128,-1,27
 360 -357 360 -357 306 -375.5 c 128,-1,28
 252 -394 252 -394 195 -399 c 0,29,30
 173 -400 173 -400 97 -395 c 128,-1,31
 21 -390 21 -390 -10 -387 c 1,32,-1
 8 -221 l 1,33,0
 35 -226 35 -226 103 -229.5 c 128,-1,1
EndSplineSet
Substitution2: "'fwid' Full Widths lookup 32 subtable" uniFF59
Substitution2: "'smcp' Lowercase to Small Capitals lookup 27 subtable" y.sc
AlternateSubs2: "'aalt' Access All Alternates lookup 1 subtable" y.sc uniFF59
EndChar

StartChar: z
Encoding: 122 122 51
Width: 1200
GlyphClass: 2
Flags: W
AnchorPoint: "Anchor-37" 599 550 basechar 0
AnchorPoint: "Anchor-35" 698 1100 basechar 0
AnchorPoint: "Anchor-33" 504 0 basechar 0
LayerCount: 2
Fore
SplineSet
87 154 m 1,0,-1
 858 952 l 1,1,-1
 230 952 l 1,2,-1
 256 1100 l 1,3,-1
 1114 1100 l 1,4,-1
 1094 974 l 1,5,-1
 304 150 l 1,6,-1
 970 150 l 1,7,-1
 944 0 l 1,8,-1
 62 0 l 1,9,-1
 87 154 l 1,0,-1
EndSplineSet
Substitution2: "'fwid' Full Widths lookup 32 subtable" uniFF5A
Substitution2: "'smcp' Lowercase to Small Capitals lookup 27 subtable" z.sc
AlternateSubs2: "'aalt' Access All Alternates lookup 1 subtable" z.sc uniFF5A
EndChar

StartChar: Alpha
Encoding: 913 913 52
Width: 1200
GlyphClass: 2
Flags: W
AnchorPoint: "Anchor-24" 292 1450 basechar 0
AnchorPoint: "Anchor-23" 600 1454 basechar 0
AnchorPoint: "Anchor-22" 929 0 basechar 0
AnchorPoint: "Anchor-21" 1114 0 basechar 0
AnchorPoint: "Anchor-20" 600 0 basechar 0
LayerCount: 2
Fore
SplineSet
657 1450 m 1,0,-1
 857 1450 l 1,1,-1
 1016 0 l 1,2,-1
 828 0 l 1,3,-1
 792 406 l 1,4,-1
 356 406 l 1,5,-1
 180 0 l 1,6,-1
 -8 0 l 1,7,-1
 657 1450 l 1,0,-1
781 550 m 1,8,-1
 731 1266 l 1,9,-1
 723 1266 l 1,10,-1
 423 550 l 1,11,-1
 781 550 l 1,8,-1
EndSplineSet
EndChar

StartChar: Beta
Encoding: 914 914 53
Width: 1200
GlyphClass: 2
Flags: W
AnchorPoint: "Anchor-23" 600 1500 basechar 0
AnchorPoint: "Anchor-20" 600 0 basechar 0
LayerCount: 2
Fore
SplineSet
325 1450 m 1,0,-1
 698 1450 l 2,1,2
 852 1450 852 1450 949 1381 c 128,-1,3
 1046 1312 1046 1312 1046 1162 c 0,4,5
 1046 1115 1046 1115 1038 1072 c 0,6,7
 1022 980 1022 980 993 921 c 128,-1,8
 964 862 964 862 920.5 824 c 128,-1,9
 877 786 877 786 808 754 c 1,10,11
 1060 707 1060 707 1060 478 c 0,12,13
 1060 433 1060 433 1052 390 c 0,14,15
 983 0 983 0 482 0 c 2,16,-1
 69 0 l 1,17,-1
 325 1450 l 1,0,-1
448 148 m 2,18,19
 559 148 559 148 644 166 c 128,-1,20
 729 184 729 184 795 244.5 c 128,-1,21
 861 305 861 305 881 422 c 0,22,23
 887 457 887 457 887 485 c 0,24,25
 887 593 887 593 811.5 635.5 c 128,-1,26
 736 678 736 678 604 678 c 2,27,-1
 357 678 l 1,28,-1
 263 148 l 1,29,-1
 448 148 l 2,18,19
523 820 m 2,30,31
 657 820 657 820 748.5 878 c 128,-1,32
 840 936 840 936 865 1080 c 0,33,34
 870 1105 870 1105 870 1136 c 0,35,36
 870 1227 870 1227 809 1262.5 c 128,-1,37
 748 1298 748 1298 641 1298 c 2,38,-1
 466 1298 l 1,39,-1
 382 820 l 1,40,-1
 523 820 l 2,30,31
EndSplineSet
EndChar

StartChar: Gamma
Encoding: 915 915 54
Width: 1200
GlyphClass: 2
Flags: W
AnchorPoint: "Anchor-23" 759 1450 basechar 0
AnchorPoint: "Anchor-20" 503 0 basechar 0
LayerCount: 2
Fore
SplineSet
297 1450 m 1,0,-1
 1220 1450 l 1,1,-1
 1193 1298 l 1,2,-1
 447 1298 l 1,3,-1
 218 0 l 1,4,-1
 42 0 l 1,5,-1
 297 1450 l 1,0,-1
EndSplineSet
EndChar

StartChar: uni0394
Encoding: 916 916 55
Width: 1200
GlyphClass: 2
Flags: W
AnchorPoint: "Anchor-23" 768 1500 basechar 0
AnchorPoint: "Anchor-20" 503 0 basechar 0
LayerCount: 2
Fore
SplineSet
731 1492 m 1,0,-1
 791 1492 l 1,1,-1
 1050 0 l 1,2,-1
 -48 0 l 1,3,-1
 731 1492 l 1,0,-1
850 134 m 1,4,-1
 709 1162 l 1,5,-1
 206 134 l 1,6,-1
 850 134 l 1,4,-1
EndSplineSet
EndChar

StartChar: Epsilon
Encoding: 917 917 56
Width: 1200
GlyphClass: 2
Flags: W
AnchorPoint: "Anchor-24" 353 1450 basechar 0
AnchorPoint: "Anchor-23" 600 1500 basechar 0
AnchorPoint: "Anchor-22" 823 0 basechar 0
AnchorPoint: "Anchor-20" 600 0 basechar 0
LayerCount: 2
Fore
SplineSet
335 1450 m 1,0,-1
 1173 1450 l 1,1,-1
 1146 1300 l 1,2,-1
 484 1300 l 1,3,-1
 401 828 l 1,4,-1
 1035 828 l 1,5,-1
 1009 682 l 1,6,-1
 375 682 l 1,7,-1
 281 146 l 1,8,-1
 969 146 l 1,9,-1
 943 0 l 1,10,-1
 79 0 l 1,11,-1
 335 1450 l 1,0,-1
EndSplineSet
EndChar

StartChar: Zeta
Encoding: 918 918 57
Width: 1200
GlyphClass: 2
Flags: W
AnchorPoint: "Anchor-25" 620 700 basechar 0
AnchorPoint: "Anchor-23" 744 1400 basechar 0
AnchorPoint: "Anchor-20" 497 0 basechar 0
LayerCount: 2
Fore
SplineSet
1228 1450 m 1,0,-1
 1202 1290 l 1,1,-1
 225 146 l 1,2,-1
 1028 146 l 1,3,-1
 1002 0 l 1,4,-1
 2 0 l 1,5,-1
 29 166 l 1,6,-1
 1010 1298 l 1,7,-1
 437 1298 l 1,8,-1
 406 1122 l 1,9,-1
 260 1122 l 1,10,-1
 317 1450 l 1,11,-1
 1228 1450 l 1,0,-1
EndSplineSet
EndChar

StartChar: Eta
Encoding: 919 919 58
Width: 1200
GlyphClass: 2
Flags: W
AnchorPoint: "Anchor-25" 631 726 basechar 0
AnchorPoint: "Anchor-24" 249 1450 basechar 0
AnchorPoint: "Anchor-23" 600 1500 basechar 0
AnchorPoint: "Anchor-21" 1010 0 basechar 0
AnchorPoint: "Anchor-20" 600 0 basechar 0
LayerCount: 2
Fore
SplineSet
349 1450 m 1,0,-1
 523 1450 l 1,1,-1
 414 834 l 1,2,-1
 886 834 l 1,3,-1
 995 1450 l 1,4,-1
 1169 1450 l 1,5,-1
 913 0 l 1,6,-1
 739 0 l 1,7,-1
 858 676 l 1,8,-1
 386 676 l 1,9,-1
 267 0 l 1,10,-1
 93 0 l 1,11,-1
 349 1450 l 1,0,-1
EndSplineSet
EndChar

StartChar: Theta
Encoding: 920 920 59
Width: 1200
GlyphClass: 2
Flags: W
AnchorPoint: "Anchor-26" 1269 1450 basechar 0
AnchorPoint: "Anchor-25" 631 726 basechar 0
AnchorPoint: "Anchor-24" 249 1450 basechar 0
AnchorPoint: "Anchor-23" 759 1450 basechar 0
AnchorPoint: "Anchor-22" 947 20 basechar 0
AnchorPoint: "Anchor-20" 503 0 basechar 0
LayerCount: 2
Fore
SplineSet
632 797 m 0,1,2
 752 797 752 797 876 830 c 1,3,-1
 847 605 l 1,4,5
 743 631 743 631 628 631 c 0,6,7
 515 631 515 631 387 603 c 1,8,-1
 416 827 l 1,9,0
 521 797 521 797 632 797 c 0,1,2
207 1105.5 m 128,-1,11
 308 1271 308 1271 451.5 1365.5 c 128,-1,12
 595 1460 595 1460 752 1460 c 0,13,14
 888 1460 888 1460 991 1388.5 c 128,-1,15
 1094 1317 1094 1317 1150 1189 c 128,-1,16
 1206 1061 1206 1061 1206 896 c 0,17,18
 1206 803 1206 803 1189 712 c 0,19,20
 1154 509 1154 509 1052.5 344.5 c 128,-1,21
 951 180 951 180 807.5 86 c 128,-1,22
 664 -8 664 -8 506 -8 c 0,23,24
 370 -8 370 -8 267.5 63.5 c 128,-1,25
 165 135 165 135 109 262.5 c 128,-1,26
 53 390 53 390 53 554 c 0,27,28
 53 639 53 639 70 736 c 0,29,10
 106 940 106 940 207 1105.5 c 128,-1,11
242 451 m 0,31,32
 242 291 242 291 305 209.5 c 128,-1,33
 368 128 368 128 511 128 c 0,34,35
 640 128 640 128 740.5 222 c 128,-1,36
 841 316 841 316 904.5 454 c 128,-1,37
 968 592 968 592 993 728 c 0,38,39
 1011 839 1011 839 1011 929 c 0,40,41
 1011 1108 1011 1108 946.5 1219.5 c 128,-1,42
 882 1331 882 1331 746 1331 c 0,43,44
 622 1331 622 1331 524.5 1245.5 c 128,-1,45
 427 1160 427 1160 363 1018 c 128,-1,46
 299 876 299 876 268 704 c 0,47,30
 242 550 242 550 242 451 c 0,31,32
EndSplineSet
EndChar

StartChar: Iota
Encoding: 921 921 60
Width: 1200
GlyphClass: 2
Flags: W
AnchorPoint: "Anchor-24" 575 1450 basechar 0
AnchorPoint: "Anchor-23" 757 1450 basechar 0
AnchorPoint: "Anchor-22" 743 0 basechar 0
AnchorPoint: "Anchor-20" 501 0 basechar 0
LayerCount: 2
Fore
SplineSet
288 140 m 1,0,-1
 438 140 l 1,1,-1
 645 1310 l 1,2,-1
 495 1310 l 1,3,-1
 519 1450 l 1,4,-1
 998 1450 l 1,5,-1
 973 1310 l 1,6,-1
 823 1310 l 1,7,-1
 617 140 l 1,8,-1
 767 140 l 1,9,-1
 742 0 l 1,10,-1
 264 0 l 1,11,-1
 288 140 l 1,0,-1
EndSplineSet
EndChar

StartChar: Kappa
Encoding: 922 922 61
Width: 1200
GlyphClass: 2
Flags: W
AnchorPoint: "Anchor-23" 600 1500 basechar 0
AnchorPoint: "Anchor-20" 600 0 basechar 0
LayerCount: 2
Fore
SplineSet
406 776 m 1,0,-1
 269 0 l 1,1,-1
 95 0 l 1,2,-1
 351 1452 l 1,3,-1
 525 1452 l 1,4,-1
 409 796 l 1,5,-1
 1027 1452 l 1,6,-1
 1245 1452 l 1,7,-1
 594 798 l 1,8,-1
 1047 0 l 1,9,-1
 831 0 l 1,10,-1
 406 776 l 1,0,-1
EndSplineSet
EndChar

StartChar: Lambda
Encoding: 923 923 62
Width: 1200
GlyphClass: 2
Flags: W
AnchorPoint: "Anchor-23" 759 1450 basechar 0
AnchorPoint: "Anchor-20" 503 0 basechar 0
LayerCount: 2
Fore
SplineSet
716 1230 m 1,0,-1
 118 0 l 1,1,-1
 -48 0 l 1,2,-1
 670 1450 l 1,3,-1
 830 1450 l 1,4,-1
 1050 0 l 1,5,-1
 890 0 l 1,6,-1
 716 1230 l 1,0,-1
EndSplineSet
EndChar

StartChar: Mu
Encoding: 924 924 63
Width: 1200
GlyphClass: 2
Flags: W
AnchorPoint: "Anchor-23" 600 1500 basechar 0
AnchorPoint: "Anchor-21" 981 0 basechar 0
AnchorPoint: "Anchor-20" 600 0 basechar 0
LayerCount: 2
Fore
SplineSet
281 1450 m 1,0,-1
 570 1450 l 1,1,-1
 613 633 l 1,2,-1
 944 1450 l 1,3,-1
 1237 1450 l 1,4,-1
 981 0 l 1,5,-1
 809 0 l 1,6,-1
 1022 1214 l 1,7,-1
 1004 1195 l 1,8,-1
 647 400 l 1,9,-1
 501 400 l 1,10,-1
 418 1195 l 1,11,-1
 410 1211 l 1,12,-1
 197 0 l 1,13,-1
 25 0 l 1,14,-1
 281 1450 l 1,0,-1
EndSplineSet
EndChar

StartChar: Nu
Encoding: 925 925 64
Width: 1200
GlyphClass: 2
Flags: W
AnchorPoint: "Anchor-23" 600 1500 basechar 0
AnchorPoint: "Anchor-20" 600 0 basechar 0
LayerCount: 2
Fore
SplineSet
337 1450 m 1,0,-1
 585 1450 l 1,1,-1
 736 486 l 1,2,-1
 777 234 l 1,3,-1
 993 1450 l 1,4,-1
 1169 1450 l 1,5,-1
 913 0 l 1,6,-1
 675 0 l 1,7,-1
 465 1192 l 1,8,-1
 253 0 l 1,9,-1
 81 0 l 1,10,-1
 337 1450 l 1,0,-1
EndSplineSet
EndChar

StartChar: Xi
Encoding: 926 926 65
Width: 1200
GlyphClass: 2
Flags: W
AnchorPoint: "Anchor-23" 768 1500 basechar 0
AnchorPoint: "Anchor-20" 503 0 basechar 0
LayerCount: 2
Fore
SplineSet
247 1450 m 1,0,-1
 1272 1450 l 1,1,-1
 1245 1298 l 1,2,-1
 221 1298 l 1,3,-1
 247 1450 l 1,0,-1
18 152 m 1,4,-1
 1043 152 l 1,5,-1
 1016 0 l 1,6,-1
 -8 0 l 1,7,-1
 18 152 l 1,4,-1
263 838 m 1,8,-1
 1040 838 l 1,9,-1
 1013 686 l 1,10,-1
 237 686 l 1,11,-1
 263 838 l 1,8,-1
EndSplineSet
EndChar

StartChar: Omicron
Encoding: 927 927 66
Width: 1200
GlyphClass: 2
Flags: W
AnchorPoint: "Anchor-26" 1193 1450 basechar 0
AnchorPoint: "Anchor-25" 630 720 basechar 0
AnchorPoint: "Anchor-24" 407 1450 basechar 0
AnchorPoint: "Anchor-23" 769 1450 basechar 0
AnchorPoint: "Anchor-22" 957 20 basechar 0
AnchorPoint: "Anchor-20" 513 0 basechar 0
LayerCount: 2
Fore
SplineSet
212.5 103.5 m 128,-1,1
 111 231 111 231 111 463 c 0,2,3
 111 585 111 585 136 722 c 0,4,5
 200 1095 200 1095 362 1278.5 c 128,-1,6
 524 1462 524 1462 761 1462 c 0,7,8
 1148 1462 1148 1462 1148 991 c 0,9,10
 1148 858 1148 858 1119 698 c 0,11,12
 1059 352 1059 352 917 164 c 128,-1,13
 775 -24 775 -24 523 -24 c 0,14,0
 314 -24 314 -24 212.5 103.5 c 128,-1,1
280 511 m 0,16,17
 280 348 280 348 337 245 c 128,-1,18
 394 142 394 142 518 142 c 0,19,20
 630 142 630 142 720.5 224.5 c 128,-1,21
 811 307 811 307 872 439.5 c 128,-1,22
 933 572 933 572 960 722 c 0,23,24
 977 826 977 826 977 913 c 0,25,26
 977 1080 977 1080 920.5 1189 c 128,-1,27
 864 1298 864 1298 742 1298 c 0,28,29
 630 1298 630 1298 537.5 1208 c 128,-1,30
 445 1118 445 1118 384 980.5 c 128,-1,31
 323 843 323 843 296 698 c 0,32,15
 280 599 280 599 280 511 c 0,16,17
EndSplineSet
EndChar

StartChar: Pi
Encoding: 928 928 67
Width: 1200
GlyphClass: 2
Flags: W
AnchorPoint: "Anchor-23" 768 1500 basechar 0
AnchorPoint: "Anchor-20" 503 0 basechar 0
LayerCount: 2
Fore
SplineSet
255 1450 m 1,0,-1
 1262 1450 l 1,1,-1
 1006 0 l 1,2,-1
 830 0 l 1,3,-1
 1059 1298 l 1,4,-1
 405 1298 l 1,5,-1
 176 0 l 1,6,-1
 0 0 l 1,7,-1
 255 1450 l 1,0,-1
EndSplineSet
EndChar

StartChar: Rho
Encoding: 929 929 68
Width: 1200
GlyphClass: 2
Flags: W
AnchorPoint: "Anchor-24" 334 1448 basechar 0
AnchorPoint: "Anchor-23" 768 1500 basechar 0
AnchorPoint: "Anchor-20" 503 0 basechar 0
LayerCount: 2
Fore
SplineSet
435 1450 m 1,0,-1
 692 1450 l 2,1,2
 880 1450 880 1450 983.5 1379.5 c 128,-1,3
 1087 1309 1087 1309 1087 1141 c 0,4,5
 1087 1086 1087 1086 1075 1018 c 0,6,7
 1036 794 1036 794 903 702 c 128,-1,8
 770 610 770 610 562 610 c 2,9,-1
 462 610 l 1,10,-1
 354 0 l 1,11,-1
 180 0 l 1,12,-1
 435 1450 l 1,0,-1
503 756 m 2,13,14
 625 756 625 756 700 775.5 c 128,-1,15
 775 795 775 795 826.5 857 c 128,-1,16
 878 919 878 919 901 1044 c 0,17,18
 909 1094 909 1094 909 1126 c 0,19,20
 909 1198 909 1198 879.5 1236.5 c 128,-1,21
 850 1275 850 1275 797 1288.5 c 128,-1,22
 744 1302 744 1302 660 1302 c 2,23,-1
 584 1302 l 1,24,-1
 488 756 l 1,25,-1
 503 756 l 2,13,14
EndSplineSet
EndChar

StartChar: Sigma
Encoding: 931 931 69
Width: 1200
GlyphClass: 2
Flags: W
AnchorPoint: "Anchor-23" 768 1500 basechar 0
AnchorPoint: "Anchor-20" 503 0 basechar 0
LayerCount: 2
Fore
SplineSet
12 148 m 1,0,-1
 510 740 l 1,1,-1
 220 1302 l 1,2,-1
 243 1450 l 1,3,-1
 1274 1450 l 1,4,-1
 1248 1302 l 1,5,-1
 396 1302 l 1,6,-1
 695 736 l 1,7,-1
 197 148 l 1,8,-1
 1044 148 l 1,9,-1
 1018 0 l 1,10,-1
 -12 0 l 1,11,-1
 12 148 l 1,0,-1
EndSplineSet
EndChar

StartChar: Tau
Encoding: 932 932 70
Width: 1200
GlyphClass: 2
Flags: W
AnchorPoint: "Anchor-25" 626 700 basechar 0
AnchorPoint: "Anchor-24" 249 1450 basechar 0
AnchorPoint: "Anchor-23" 600 1500 basechar 0
AnchorPoint: "Anchor-20" 600 0 basechar 0
LayerCount: 2
Fore
SplineSet
648 1298 m 1,0,-1
 222 1298 l 1,1,-1
 249 1450 l 1,2,-1
 1267 1450 l 1,3,-1
 1240 1298 l 1,4,-1
 814 1298 l 1,5,-1
 585 0 l 1,6,-1
 419 0 l 1,7,-1
 648 1298 l 1,0,-1
EndSplineSet
EndChar

StartChar: Upsilon
Encoding: 933 933 71
Width: 1200
GlyphClass: 2
Flags: W
AnchorPoint: "Anchor-24" 205 1406 basechar 0
AnchorPoint: "Anchor-23" 759 1454 basechar 0
AnchorPoint: "Anchor-20" 503 0 basechar 0
LayerCount: 2
Fore
SplineSet
527 608 m 1,0,-1
 212 1454 l 1,1,-1
 421 1454 l 1,2,-1
 642 824 l 1,3,-1
 1095 1454 l 1,4,-1
 1311 1454 l 1,5,-1
 700 608 l 1,6,-1
 590 0 l 1,7,-1
 418 0 l 1,8,-1
 527 608 l 1,0,-1
EndSplineSet
EndChar

StartChar: Phi
Encoding: 934 934 72
Width: 1200
GlyphClass: 2
Flags: W
AnchorPoint: "Anchor-26" 1271 1450 basechar 0
AnchorPoint: "Anchor-25" 592 506 basechar 0
AnchorPoint: "Anchor-24" 269 1450 basechar 0
AnchorPoint: "Anchor-23" 759 1450 basechar 0
AnchorPoint: "Anchor-22" 965 0 basechar 0
AnchorPoint: "Anchor-20" 503 0 basechar 0
LayerCount: 2
Fore
SplineSet
1061 1318 m 1,0,-1
 839 1318 l 1,1,-1
 819 1203 l 1,2,3
 992 1185 992 1185 1070 1107 c 128,-1,4
 1148 1029 1148 1029 1148 873 c 0,5,6
 1148 800 1148 800 1129 692 c 0,7,8
 1104 542 1104 542 1048.5 449.5 c 128,-1,9
 993 357 993 357 896.5 310 c 128,-1,10
 800 263 800 263 648 253 c 1,11,-1
 628 130 l 1,12,-1
 851 130 l 1,13,-1
 828 0 l 1,14,-1
 178 0 l 1,15,-1
 201 130 l 1,16,-1
 422 130 l 1,17,-1
 443 254 l 1,18,19
 268 269 268 269 188.5 342 c 128,-1,20
 109 415 109 415 109 562 c 0,21,22
 109 633 109 633 125 716 c 0,23,24
 154 885 154 885 211 988 c 128,-1,25
 268 1091 268 1091 365.5 1143 c 128,-1,26
 463 1195 463 1195 615 1205 c 1,27,-1
 633 1318 l 1,28,-1
 410 1318 l 1,29,-1
 433 1450 l 1,30,-1
 1084 1450 l 1,31,-1
 1061 1318 l 1,0,-1
291.5 597 m 128,-1,33
 287 561 287 561 287 531 c 0,34,35
 287 478 287 478 304 444 c 128,-1,36
 321 410 321 410 362.5 390.5 c 128,-1,37
 404 371 404 371 478 365 c 1,38,-1
 610 1090 l 1,39,40
 506 1073 506 1073 445.5 1018.5 c 128,-1,41
 385 964 385 964 356 887 c 128,-1,42
 327 810 327 810 305 692 c 0,43,32
 296 633 296 633 291.5 597 c 128,-1,33
863 493.5 m 128,-1,45
 927 587 927 587 951 716 c 0,46,47
 966 810 966 810 966 862 c 0,48,49
 966 954 966 954 926 1012.5 c 128,-1,50
 886 1071 886 1071 788 1089 c 1,51,-1
 658 372 l 1,52,44
 799 400 799 400 863 493.5 c 128,-1,45
EndSplineSet
EndChar

StartChar: Chi
Encoding: 935 935 73
Width: 1200
GlyphClass: 2
Flags: W
AnchorPoint: "Anchor-23" 600 1450 basechar 0
AnchorPoint: "Anchor-21" 916 -94 basechar 0
AnchorPoint: "Anchor-20" 600 0 basechar 0
LayerCount: 2
Fore
SplineSet
276 1450 m 1,0,-1
 277 1284 l 1,1,-1
 50 1284 l 1,2,-1
 50 1450 l 1,3,-1
 276 1450 l 1,0,-1
538 752 m 1,4,-1
 277 1450 l 1,5,-1
 469 1450 l 1,6,-1
 651 904 l 1,7,-1
 1039 1450 l 1,8,-1
 1229 1450 l 1,9,-1
 728 774 l 1,10,-1
 1007 0 l 1,11,-1
 823 0 l 1,12,-1
 614 622 l 1,13,-1
 185 0 l 1,14,-1
 -3 0 l 1,15,-1
 538 752 l 1,4,-1
EndSplineSet
EndChar

StartChar: Psi
Encoding: 936 936 74
Width: 1200
GlyphClass: 2
Flags: W
AnchorPoint: "Anchor-23" 768 1500 basechar 0
AnchorPoint: "Anchor-20" 503 0 basechar 0
LayerCount: 2
Fore
SplineSet
488 423 m 1,0,1
 155 462 155 462 155 787 c 0,2,3
 155 855 155 855 170 936 c 0,4,5
 172 948 172 948 185 1017 c 0,6,7
 204 1118 204 1118 215.5 1196 c 128,-1,8
 227 1274 227 1274 227 1347 c 0,9,10
 227 1410 227 1410 215 1461 c 1,11,-1
 389 1451 l 1,12,13
 397 1411 397 1411 397 1352 c 0,14,15
 397 1271 397 1271 383 1181.5 c 128,-1,16
 369 1092 369 1092 346 973 c 0,17,18
 339 943 339 943 334 912 c 0,19,20
 322 845 322 845 322 790 c 0,21,22
 322 692 322 692 366.5 638.5 c 128,-1,23
 411 585 411 585 514 571 c 1,24,-1
 669 1450 l 1,25,-1
 852 1450 l 1,26,-1
 697 574 l 1,27,28
 830 598 830 598 899 686.5 c 128,-1,29
 968 775 968 775 998 936 c 1,30,-1
 1006 991 l 2,31,32
 1029 1143 1029 1143 1054.5 1259 c 128,-1,33
 1080 1375 1080 1375 1128 1462 c 1,34,-1
 1309 1450 l 1,35,36
 1258 1366 1258 1366 1229.5 1251.5 c 128,-1,37
 1201 1137 1201 1137 1175 986 c 2,38,-1
 1162 912 l 2,39,40
 1122 682 1122 682 1000.5 561.5 c 128,-1,41
 879 441 879 441 670 422 c 1,42,-1
 596 0 l 1,43,-1
 414 0 l 1,44,-1
 488 423 l 1,0,1
EndSplineSet
EndChar

StartChar: uni03A9
Encoding: 937 937 75
Width: 1200
GlyphClass: 2
Flags: W
AnchorPoint: "Anchor-24" 305 1450 basechar 0
AnchorPoint: "Anchor-23" 750 1500 basechar 0
AnchorPoint: "Anchor-21" 945 0 basechar 0
AnchorPoint: "Anchor-20" 485 0 basechar 0
LayerCount: 2
Fore
SplineSet
56 170 m 1,0,-1
 292 170 l 1,1,-1
 305 200 l 1,2,3
 249 233 249 233 199.5 297.5 c 128,-1,4
 150 362 150 362 119.5 457 c 128,-1,5
 89 552 89 552 89 668 c 0,6,7
 89 753 89 753 106 841 c 0,8,9
 137 1029 137 1029 225 1170 c 128,-1,10
 313 1311 313 1311 444.5 1387.5 c 128,-1,11
 576 1464 576 1464 733 1464 c 0,12,13
 948 1464 948 1464 1061.5 1344.5 c 128,-1,14
 1175 1225 1175 1225 1175 1006 c 0,15,16
 1175 914 1175 914 1156 815 c 0,17,18
 1129 652 1129 652 1062.5 526 c 128,-1,19
 996 400 996 400 912.5 319 c 128,-1,20
 829 238 829 238 745 197 c 1,21,-1
 737 170 l 1,22,-1
 974 170 l 1,23,-1
 944 0 l 1,24,-1
 544 0 l 1,25,-1
 584 263 l 1,26,27
 679 282 679 282 761.5 373 c 128,-1,28
 844 464 844 464 901 590.5 c 128,-1,29
 958 717 958 717 982 841 c 0,30,31
 990 895 990 895 990 947 c 0,32,33
 990 1044 990 1044 963.5 1128 c 128,-1,34
 937 1212 937 1212 877.5 1265 c 128,-1,35
 818 1318 818 1318 726 1318 c 0,36,37
 610 1318 610 1318 516 1242 c 128,-1,38
 422 1166 422 1166 361.5 1050 c 128,-1,39
 301 934 301 934 278 815 c 0,40,41
 264 729 264 729 264 646 c 0,42,43
 264 494 264 494 312.5 388.5 c 128,-1,44
 361 283 361 283 466 261 c 1,45,-1
 426 0 l 1,46,-1
 26 0 l 1,47,-1
 56 170 l 1,0,-1
EndSplineSet
EndChar

StartChar: alpha
Encoding: 945 945 76
Width: 1200
GlyphClass: 2
Flags: W
AnchorPoint: "Anchor-25" 617 550 basechar 0
AnchorPoint: "Anchor-23" 700 1117 basechar 0
AnchorPoint: "Anchor-20" 497 -35 basechar 0
LayerCount: 2
Fore
SplineSet
186.5 31.5 m 128,-1,1
 128 75 128 75 94.5 159.5 c 128,-1,2
 61 244 61 244 61 363 c 0,3,4
 61 447 61 447 79 547 c 0,5,6
 109 721 109 721 173 849 c 128,-1,7
 237 977 237 977 325 1045.5 c 128,-1,8
 413 1114 413 1114 512 1114 c 0,9,10
 615 1114 615 1114 671 1048.5 c 128,-1,11
 727 983 727 983 740 878 c 1,12,13
 754 811 754 811 756 679 c 1,14,15
 809 791 809 791 861 915 c 128,-1,16
 913 1039 913 1039 936 1106 c 1,17,-1
 1093 1094 l 1,18,19
 1036 925 1036 925 944 730.5 c 128,-1,20
 852 536 852 536 760 380 c 1,21,-1
 754 371 l 1,22,23
 759 256 759 256 776.5 202 c 128,-1,24
 794 148 794 148 835 148 c 0,25,26
 869 148 869 148 904 176 c 128,-1,27
 939 204 939 204 969 250 c 1,28,-1
 1058 166 l 1,29,30
 1009 91 1009 91 945.5 39 c 128,-1,31
 882 -13 882 -13 805 -13 c 0,32,33
 670 -13 670 -13 638 200 c 1,34,35
 563 99 563 99 485.5 43.5 c 128,-1,36
 408 -12 408 -12 321 -12 c 0,37,0
 245 -12 245 -12 186.5 31.5 c 128,-1,1
224 400 m 0,39,40
 224 293 224 293 254.5 222.5 c 128,-1,41
 285 152 285 152 338 152 c 0,42,43
 397 152 397 152 476.5 235 c 128,-1,44
 556 318 556 318 631 440 c 1,45,46
 629 721 629 721 623 806 c 0,47,48
 618 868 618 868 589 909.5 c 128,-1,49
 560 951 560 951 518 951 c 0,50,51
 464 951 464 951 407 897 c 128,-1,52
 350 843 350 843 303.5 744.5 c 128,-1,53
 257 646 257 646 234 519 c 0,54,38
 224 462 224 462 224 400 c 0,39,40
EndSplineSet
EndChar

StartChar: beta
Encoding: 946 946 77
Width: 1200
GlyphClass: 2
Flags: W
AnchorPoint: "Anchor-23" 762 1466 basechar 0
LayerCount: 2
Fore
SplineSet
251.5 1099 m 128,-1,1
 312 1272 312 1272 421.5 1367 c 128,-1,2
 531 1462 531 1462 714 1462 c 0,3,4
 822 1462 822 1462 898.5 1430 c 128,-1,5
 975 1398 975 1398 1014.5 1338.5 c 128,-1,6
 1054 1279 1054 1279 1054 1198 c 0,7,8
 1054 1163 1054 1163 1047 1129 c 0,9,10
 1034 1050 1034 1050 991 977 c 128,-1,11
 948 904 948 904 879 848 c 128,-1,12
 810 792 810 792 722 763 c 1,13,14
 877 739 877 739 962 659 c 128,-1,15
 1047 579 1047 579 1047 448 c 0,16,17
 1047 413 1047 413 1039 368 c 0,18,19
 1018 242 1018 242 941.5 155 c 128,-1,20
 865 68 865 68 751.5 25 c 128,-1,21
 638 -18 638 -18 504 -18 c 0,22,23
 427 -18 427 -18 372.5 -3.5 c 128,-1,24
 318 11 318 11 279 38 c 128,-1,25
 240 65 240 65 200 108 c 1,26,27
 180 -39 180 -39 167 -119.5 c 128,-1,28
 154 -200 154 -200 134 -310 c 2,29,-1
 129 -336 l 1,30,-1
 -31 -330 l 1,31,-1
 140 634 l 2,32,0
 191 926 191 926 251.5 1099 c 128,-1,1
265 362 m 0,34,35
 265 237 265 237 319.5 179.5 c 128,-1,36
 374 122 374 122 502 122 c 0,37,38
 586 122 586 122 666.5 148 c 128,-1,39
 747 174 747 174 809 239.5 c 128,-1,40
 871 305 871 305 891 414 c 0,41,42
 895 438 895 438 895 464 c 0,43,44
 895 520 895 520 865 557.5 c 128,-1,45
 835 595 835 595 767.5 624.5 c 128,-1,46
 700 654 700 654 578 685 c 0,47,48
 570 685 570 685 543 685.5 c 128,-1,49
 516 686 516 686 404 690 c 1,50,51
 405 719 405 719 410 746 c 0,52,53
 416 801 416 801 416 806 c 1,54,55
 530 804 530 804 633 846 c 128,-1,56
 736 888 736 888 805.5 965 c 128,-1,57
 875 1042 875 1042 893 1140 c 0,58,59
 896 1163 896 1163 896 1181 c 0,60,61
 896 1253 896 1253 851 1286.5 c 128,-1,62
 806 1320 806 1320 731 1320 c 0,63,64
 585 1320 585 1320 498.5 1213 c 128,-1,65
 412 1106 412 1106 371 958 c 128,-1,66
 330 810 330 810 285 560 c 0,67,33
 265 443 265 443 265 362 c 0,34,35
EndSplineSet
EndChar

StartChar: gamma
Encoding: 947 947 78
Width: 1200
GlyphClass: 2
Flags: W
AnchorPoint: "Anchor-23" 697 1100 basechar 0
AnchorPoint: "Anchor-20" 447 -316 basechar 0
LayerCount: 2
Fore
SplineSet
416.5 -157.5 m 128,-1,1
 425 -90 425 -90 442 2 c 0,2,3
 452 58 452 58 457 93 c 128,-1,4
 462 128 462 128 461 158 c 0,5,6
 455 216 455 216 357 581 c 0,7,8
 350 609 350 609 318 730 c 1,9,10
 295 785 295 785 271.5 890.5 c 128,-1,11
 248 996 248 996 229 1105 c 1,12,-1
 402 1095 l 1,13,14
 414 1045 414 1045 430 945 c 0,15,16
 432 933 432 933 439.5 887.5 c 128,-1,17
 447 842 447 842 456 803 c 2,18,-1
 593 299 l 1,19,20
 675 380 675 380 730.5 456.5 c 128,-1,21
 786 533 786 533 839 630 c 1,22,23
 894 721 894 721 936 824 c 128,-1,24
 978 927 978 927 1023 1106 c 1,25,-1
 1184 1094 l 1,26,27
 1156 937 1156 937 1095.5 790 c 128,-1,28
 1035 643 1035 643 971 538 c 0,29,30
 943 497 943 497 835 363 c 0,31,32
 760 270 760 270 720.5 219 c 128,-1,33
 681 168 681 168 664 138 c 0,34,35
 630 85 630 85 605 -17 c 128,-1,36
 580 -119 580 -119 580 -245 c 0,37,38
 580 -283 580 -283 583 -322 c 1,39,-1
 409 -310 l 1,40,0
 408 -225 408 -225 416.5 -157.5 c 128,-1,1
EndSplineSet
EndChar

StartChar: delta
Encoding: 948 948 79
Width: 1200
GlyphClass: 2
Flags: W
AnchorPoint: "Anchor-23" 761 1464 basechar 0
AnchorPoint: "Anchor-20" 503 0 basechar 0
LayerCount: 2
Fore
SplineSet
289.5 39.5 m 128,-1,1
 198 93 198 93 151.5 183.5 c 128,-1,2
 105 274 105 274 105 385 c 0,3,4
 105 435 105 435 114 484 c 0,5,6
 133 599 133 599 197 694.5 c 128,-1,7
 261 790 261 790 360.5 856.5 c 128,-1,8
 460 923 460 923 586 952 c 1,9,10
 483 994 483 994 423 1051 c 128,-1,11
 363 1108 363 1108 363 1188 c 0,12,13
 363 1209 363 1209 367 1228 c 0,14,15
 379 1300 379 1300 434 1353.5 c 128,-1,16
 489 1407 489 1407 575.5 1435.5 c 128,-1,17
 662 1464 662 1464 766 1464 c 0,18,19
 957 1464 957 1464 1143 1364 c 1,20,21
 1124 1329 1124 1329 1111 1300 c 0,22,23
 1103 1280 1103 1280 1076 1232 c 1,24,25
 964 1285 964 1285 893.5 1304.5 c 128,-1,26
 823 1324 823 1324 760 1324 c 0,27,28
 693 1324 693 1324 640 1308 c 128,-1,29
 587 1292 587 1292 556 1264.5 c 128,-1,30
 525 1237 525 1237 520 1204 c 1,31,32
 519 1159 519 1159 572.5 1114.5 c 128,-1,33
 626 1070 626 1070 726 1010 c 2,34,-1
 749 996 l 1,35,36
 808 968 808 968 870.5 923.5 c 128,-1,37
 933 879 933 879 965 843 c 1,38,39
 1074 760 1074 760 1074 594 c 0,40,41
 1074 547 1074 547 1063 483 c 0,42,43
 1038 335 1038 335 960.5 222.5 c 128,-1,44
 883 110 883 110 767 48 c 128,-1,45
 651 -14 651 -14 512 -14 c 0,46,0
 381 -14 381 -14 289.5 39.5 c 128,-1,1
262 388 m 0,48,49
 262 306 262 306 294 247 c 128,-1,50
 326 188 326 188 382 157 c 128,-1,51
 438 126 438 126 508 126 c 0,52,53
 605 126 605 126 690 180.5 c 128,-1,54
 775 235 775 235 832.5 322 c 128,-1,55
 890 409 890 409 907 502 c 0,56,57
 912 532 912 532 912 558 c 0,58,59
 912 732 912 732 714 851 c 1,60,61
 527 814 527 814 412.5 718.5 c 128,-1,62
 298 623 298 623 269 462 c 0,63,47
 262 417 262 417 262 388 c 0,48,49
EndSplineSet
EndChar

StartChar: epsilon
Encoding: 949 949 80
Width: 1200
GlyphClass: 2
Flags: W
AnchorPoint: "Anchor-23" 697 1100 basechar 0
AnchorPoint: "Anchor-20" 501 -12 basechar 0
LayerCount: 2
Fore
SplineSet
346.5 10 m 128,-1,1
 267 34 267 34 209 82 c 0,2,3
 161 123 161 123 135.5 174 c 128,-1,4
 110 225 110 225 110 281 c 0,5,6
 110 302 110 302 115 329 c 0,7,8
 133 422 133 422 211 492.5 c 128,-1,9
 289 563 289 563 405 600 c 1,10,11
 327 631 327 631 289.5 675 c 128,-1,12
 252 719 252 719 252 782 c 0,13,14
 252 807 252 807 256 828 c 0,15,16
 268 894 268 894 305.5 946.5 c 128,-1,17
 343 999 343 999 404 1035 c 0,18,19
 462 1070 462 1070 537 1090 c 128,-1,20
 612 1110 612 1110 692 1110 c 0,21,22
 793 1110 793 1110 889 1076 c 0,23,24
 979 1045 979 1045 1070 975 c 1,25,-1
 959 877 l 1,26,27
 903 919 903 919 829.5 942.5 c 128,-1,28
 756 966 756 966 688 966 c 0,29,30
 626 966 626 966 568.5 946 c 128,-1,31
 511 926 511 926 470.5 886 c 128,-1,32
 430 846 430 846 420 788 c 0,33,34
 418 779 418 779 418 761 c 0,35,36
 418 700 418 700 470 670 c 128,-1,37
 522 640 522 640 619 640 c 2,38,-1
 712 640 l 1,39,-1
 688 500 l 1,40,-1
 592 500 l 2,41,42
 523 500 523 500 455 475.5 c 128,-1,43
 387 451 387 451 339.5 405.5 c 128,-1,44
 292 360 292 360 281 298 c 0,45,46
 279 289 279 289 279 272 c 0,47,48
 279 199 279 199 350 163.5 c 128,-1,49
 421 128 421 128 542 128 c 0,50,51
 642 128 642 128 728.5 153 c 128,-1,52
 815 178 815 178 879 230 c 1,53,-1
 974 126 l 1,54,55
 900 65 900 65 776.5 25.5 c 128,-1,56
 653 -14 653 -14 523 -14 c 0,57,0
 426 -14 426 -14 346.5 10 c 128,-1,1
EndSplineSet
EndChar

StartChar: zeta
Encoding: 950 950 81
Width: 1200
GlyphClass: 2
Flags: W
AnchorPoint: "Anchor-23" 765 1454 basechar 0
AnchorPoint: "Anchor-20" 444 -334 basechar 0
LayerCount: 2
Fore
SplineSet
604 -196 m 0,1,2
 659 -196 659 -196 708 -177 c 128,-1,3
 757 -158 757 -158 789.5 -124 c 128,-1,4
 822 -90 822 -90 831 -46 c 0,5,6
 832 -41 832 -41 832 -31 c 0,7,8
 832 7 832 7 808.5 31.5 c 128,-1,9
 785 56 785 56 741 56 c 0,10,11
 713 56 713 56 684 49 c 128,-1,12
 655 42 655 42 614 28 c 0,13,14
 559 11 559 11 523 2.5 c 128,-1,15
 487 -6 487 -6 444 -6 c 0,16,17
 264 -6 264 -6 183 107.5 c 128,-1,18
 102 221 102 221 102 401 c 0,19,20
 102 486 102 486 120 584 c 0,21,22
 142 716 142 716 211.5 825 c 128,-1,23
 281 934 281 934 361 1015 c 1,24,25
 409 1056 409 1056 488.5 1113 c 128,-1,26
 568 1170 568 1170 637 1211 c 1,27,28
 543 1222 543 1222 436 1241 c 128,-1,29
 329 1260 329 1260 252 1283 c 1,30,-1
 305 1414 l 1,31,32
 485 1350 485 1350 667 1350 c 0,33,34
 739 1350 739 1350 823 1354.5 c 128,-1,35
 907 1359 907 1359 980 1364 c 2,36,-1
 1070 1370 l 1,37,38
 1067 1342 1067 1342 1065 1326 c 128,-1,39
 1063 1310 1063 1310 1062 1301 c 0,40,41
 1058 1276 1058 1276 1054 1229 c 1,42,43
 934 1223 934 1223 824 1175 c 128,-1,44
 714 1127 714 1127 608 1046 c 1,45,46
 538 999 538 999 466 921 c 128,-1,47
 394 843 394 843 339.5 748 c 128,-1,48
 285 653 285 653 268 560 c 0,49,50
 254 473 254 473 254 404 c 0,51,52
 254 277 254 277 303 206.5 c 128,-1,53
 352 136 352 136 457 136 c 0,54,55
 499 136 499 136 539 145 c 128,-1,56
 579 154 579 154 635 172 c 0,57,58
 692 189 692 189 729 197.5 c 128,-1,59
 766 206 766 206 805 206 c 0,60,61
 900 206 900 206 944.5 158.5 c 128,-1,62
 989 111 989 111 989 27 c 0,63,64
 989 -7 989 -7 981 -50 c 0,65,66
 966 -136 966 -136 916.5 -200.5 c 128,-1,67
 867 -265 867 -265 787.5 -300.5 c 128,-1,68
 708 -336 708 -336 606 -336 c 0,69,70
 564 -336 564 -336 528.5 -330 c 128,-1,71
 493 -324 493 -324 465 -317.5 c 128,-1,72
 437 -311 437 -311 428 -309 c 1,73,-1
 442 -166 l 1,74,0
 515 -196 515 -196 604 -196 c 0,1,2
EndSplineSet
EndChar

StartChar: eta
Encoding: 951 951 82
Width: 1200
GlyphClass: 2
Flags: W
AnchorPoint: "Anchor-23" 700 1118 basechar 0
LayerCount: 2
Fore
SplineSet
899 728 m 0,1,2
 899 846 899 846 856 901 c 128,-1,3
 813 956 813 956 712 956 c 0,4,5
 608 956 608 956 523 906.5 c 128,-1,6
 438 857 438 857 384 775 c 128,-1,7
 330 693 330 693 313 598 c 2,8,-1
 209 0 l 1,9,-1
 43 0 l 1,10,-1
 98 308 l 1,11,-1
 104 340 l 2,12,13
 142 559 142 559 150 588 c 0,14,15
 172 728 172 728 239 1106 c 1,16,-1
 393 1100 l 1,17,-1
 392 949 l 1,18,19
 466 1034 466 1034 560.5 1076 c 128,-1,20
 655 1118 655 1118 759 1118 c 0,21,22
 869 1118 869 1118 943 1072.5 c 128,-1,23
 1017 1027 1017 1027 1052.5 953.5 c 128,-1,24
 1088 880 1088 880 1088 795 c 0,25,26
 1088 764 1088 764 1081 722 c 2,27,-1
 900 -315 l 1,28,-1
 732 -315 l 1,29,-1
 862 418 l 2,30,0
 899 621 899 621 899 728 c 0,1,2
EndSplineSet
EndChar

StartChar: theta
Encoding: 952 952 83
Width: 1200
GlyphClass: 2
Flags: W
AnchorPoint: "Anchor-23" 770 1470 basechar 0
AnchorPoint: "Anchor-20" 492 -42 basechar 0
LayerCount: 2
Fore
SplineSet
311 58.5 m 128,-1,1
 224 129 224 129 178 251.5 c 128,-1,2
 132 374 132 374 132 528 c 0,3,4
 132 623 132 623 150 723 c 0,5,6
 182 907 182 907 268 1077 c 128,-1,7
 354 1247 354 1247 481 1354.5 c 128,-1,8
 608 1462 608 1462 756 1462 c 0,9,10
 880 1462 880 1462 964.5 1387.5 c 128,-1,11
 1049 1313 1049 1313 1090.5 1188.5 c 128,-1,12
 1132 1064 1132 1064 1132 912 c 0,13,14
 1132 807 1132 807 1112 698 c 0,15,16
 1079 507 1079 507 992 344.5 c 128,-1,17
 905 182 905 182 781 85 c 128,-1,18
 657 -12 657 -12 518 -12 c 0,19,0
 398 -12 398 -12 311 58.5 c 128,-1,1
304 533 m 0,21,22
 304 417 304 417 328.5 325.5 c 128,-1,23
 353 234 353 234 401.5 181 c 128,-1,24
 450 128 450 128 520 128 c 0,25,26
 594 128 594 128 670.5 183 c 128,-1,27
 747 238 747 238 813.5 341 c 128,-1,28
 880 444 880 444 922 584 c 1,29,30
 881 577 881 577 843 577 c 0,31,32
 790 577 790 577 749 588 c 128,-1,33
 708 599 708 599 652 622 c 0,34,35
 601 643 601 643 564.5 653 c 128,-1,36
 528 663 528 663 484 663 c 0,37,38
 408 663 408 663 308 624 c 1,39,20
 304 562 304 562 304 533 c 0,21,22
512 825 m 0,41,42
 556 825 556 825 591.5 814.5 c 128,-1,43
 627 804 627 804 679 782 c 0,44,45
 737 758 737 758 780 746 c 128,-1,46
 823 734 823 734 879 734 c 0,47,48
 918 734 918 734 959 741 c 1,49,50
 975 837 975 837 975 931 c 0,51,52
 975 1046 975 1046 949 1134 c 128,-1,53
 923 1222 923 1222 871.5 1272 c 128,-1,54
 820 1322 820 1322 746 1322 c 0,55,56
 655 1322 655 1322 572 1252 c 128,-1,57
 489 1182 489 1182 425.5 1059 c 128,-1,58
 362 936 362 936 330 782 c 1,59,40
 434 825 434 825 512 825 c 0,41,42
EndSplineSet
EndChar

StartChar: iota
Encoding: 953 953 84
Width: 1200
GlyphClass: 2
Flags: W
AnchorPoint: "Anchor-23" 697 1100 basechar 0
AnchorPoint: "Anchor-20" 499 -21 basechar 0
LayerCount: 2
Fore
SplineSet
506.5 70 m 128,-1,1
 467 116 467 116 467 204 c 0,2,3
 467 247 467 247 475 290 c 2,4,-1
 592 960 l 1,5,-1
 275 960 l 1,6,-1
 300 1100 l 1,7,-1
 778 1100 l 1,8,-1
 636 302 l 2,9,10
 632 279 632 279 632 257 c 0,11,12
 632 193 632 193 666.5 167.5 c 128,-1,13
 701 142 701 142 750 142 c 0,14,15
 804 142 804 142 825 141.5 c 128,-1,16
 846 141 846 141 852 138.5 c 128,-1,17
 858 136 858 136 870 135 c 1,18,19
 869 118 869 118 863 63 c 0,20,21
 861 49 861 49 855 -7 c 1,22,23
 839 -4 839 -4 760 0 c 0,24,25
 639 6 639 6 612 13 c 0,26,0
 546 24 546 24 506.5 70 c 128,-1,1
EndSplineSet
EndChar

StartChar: kappa
Encoding: 954 954 85
Width: 1200
GlyphClass: 2
Flags: W
AnchorPoint: "Anchor-20" 503 0 basechar 0
LayerCount: 2
Fore
SplineSet
525.5 77 m 128,-1,1
 484 160 484 160 485 258 c 0,2,3
 483 282 483 282 483 299 c 0,4,5
 481 354 481 354 473.5 390.5 c 128,-1,6
 466 427 466 427 438.5 454.5 c 128,-1,7
 411 482 411 482 356 482 c 2,8,-1
 284 482 l 1,9,-1
 199 0 l 1,10,-1
 33 0 l 1,11,-1
 227 1100 l 1,12,-1
 393 1100 l 1,13,-1
 311 637 l 1,14,15
 410 655 410 655 499.5 724 c 128,-1,16
 589 793 589 793 641 894 c 0,17,18
 699 1001 699 1001 781 1050.5 c 128,-1,19
 863 1100 863 1100 979 1100 c 2,20,-1
 1059 1100 l 1,21,-1
 1035 960 l 1,22,-1
 986 960 l 2,23,24
 914 960 914 960 863.5 913.5 c 128,-1,25
 813 867 813 867 769 790 c 1,26,27
 736 741 736 741 705 705 c 128,-1,28
 674 669 674 669 623.5 633 c 128,-1,29
 573 597 573 597 503 574 c 1,30,31
 547 567 547 567 569 546.5 c 128,-1,32
 591 526 591 526 600.5 484.5 c 128,-1,33
 610 443 610 443 615 359 c 0,34,35
 617 346 617 346 618.5 325.5 c 128,-1,36
 620 305 620 305 621 295 c 0,37,38
 624 243 624 243 629.5 211 c 128,-1,39
 635 179 635 179 651 156.5 c 128,-1,40
 667 134 667 134 699 134 c 0,41,42
 763 134 763 134 805.5 203.5 c 128,-1,43
 848 273 848 273 886 382 c 1,44,-1
 1031 342 l 1,45,46
 1007 261 1007 261 962 182 c 128,-1,47
 917 103 917 103 849 48.5 c 128,-1,48
 781 -6 781 -6 695 -6 c 0,49,0
 567 -6 567 -6 525.5 77 c 128,-1,1
EndSplineSet
EndChar

StartChar: lambda
Encoding: 955 955 86
Width: 1200
GlyphClass: 2
Flags: W
AnchorPoint: "Anchor-23" 759 1450 basechar 0
AnchorPoint: "Anchor-20" 503 0 basechar 0
LayerCount: 2
Fore
SplineSet
56 39 m 2,0,1
 104 102 104 102 251 294 c 128,-1,2
 398 486 398 486 512 638 c 128,-1,3
 626 790 626 790 737 940 c 1,4,5
 735 1059 735 1059 719 1137 c 128,-1,6
 703 1215 703 1215 655.5 1262.5 c 128,-1,7
 608 1310 608 1310 518 1310 c 2,8,-1
 286 1310 l 1,9,-1
 300 1450 l 1,10,-1
 481 1450 l 2,11,12
 630 1450 630 1450 708.5 1422.5 c 128,-1,13
 787 1395 787 1395 824 1324.5 c 128,-1,14
 861 1254 861 1254 873 1115 c 0,15,16
 890 961 890 961 912 680 c 0,17,18
 928 474 928 474 942 316 c 128,-1,19
 956 158 956 158 977 -6 c 1,20,-1
 799 6 l 1,21,22
 794 132 794 132 778 335 c 128,-1,23
 762 538 762 538 746 710 c 1,24,25
 622 552 622 552 504.5 392 c 128,-1,26
 387 232 387 232 217 -6 c 1,27,-1
 30 5 l 1,28,-1
 56 39 l 2,0,1
EndSplineSet
EndChar

StartChar: uni03BC
Encoding: 956 956 87
Width: 1200
GlyphClass: 2
Flags: W
AnchorPoint: "Anchor-23" 700 1118 basechar 0
AnchorPoint: "Anchor-20" 424 -450 basechar 0
LayerCount: 2
Fore
SplineSet
243 1107 m 1,1,-1
 409 1100 l 1,2,-1
 314 523 l 2,3,4
 302 437 302 437 302 378 c 0,5,6
 302 261 302 261 350 194.5 c 128,-1,7
 398 128 398 128 513 128 c 0,8,9
 619 128 619 128 697 188 c 128,-1,10
 775 248 775 248 822.5 344 c 128,-1,11
 870 440 870 440 891 551 c 2,12,-1
 983 1100 l 1,13,-1
 1153 1093 l 1,14,15
 1126 969 1126 969 1079.5 740 c 128,-1,16
 1033 511 1033 511 1004 363 c 1,17,-1
 945 0 l 1,18,-1
 799 0 l 1,19,-1
 825 172 l 1,20,21
 775 87 775 87 700 37.5 c 128,-1,22
 625 -12 625 -12 529 -12 c 0,23,24
 436 -12 436 -12 370 22.5 c 128,-1,25
 304 57 304 57 257 144 c 1,26,-1
 120 -474 l 1,27,-1
 -49 -467 l 1,28,0
 117 227 117 227 243 1107 c 1,1,-1
EndSplineSet
EndChar

StartChar: nu
Encoding: 957 957 88
Width: 1200
GlyphClass: 2
Flags: W
AnchorPoint: "Anchor-23" 697 1100 basechar 0
AnchorPoint: "Anchor-20" 503 0 basechar 0
LayerCount: 2
Fore
SplineSet
399 960 m 1,0,-1
 173 960 l 1,1,-1
 198 1100 l 1,2,-1
 574 1100 l 1,3,-1
 518 206 l 1,4,5
 544 206 544 206 579 213 c 1,6,7
 705 321 705 321 794 429.5 c 128,-1,8
 883 538 883 538 946 705 c 128,-1,9
 1009 872 1009 872 1019 1106 c 1,10,-1
 1179 1094 l 1,11,12
 1164 797 1164 797 1069 582.5 c 128,-1,13
 974 368 974 368 839.5 232 c 128,-1,14
 705 96 705 96 540 -3 c 1,15,-1
 354 0 l 1,16,-1
 399 960 l 1,0,-1
EndSplineSet
EndChar

StartChar: xi
Encoding: 958 958 89
Width: 1200
GlyphClass: 2
Flags: W
AnchorPoint: "Anchor-23" 759 1454 basechar 0
LayerCount: 2
Fore
SplineSet
586 -192 m 0,1,2
 680 -192 680 -192 740 -162 c 128,-1,3
 800 -132 800 -132 809 -86 c 0,4,5
 813 -59 813 -59 788 -35 c 128,-1,6
 763 -11 763 -11 708 3.5 c 128,-1,7
 653 18 653 18 569 18 c 0,8,9
 336 18 336 18 208.5 75 c 128,-1,10
 81 132 81 132 81 281 c 0,11,12
 81 316 81 316 88 352 c 0,13,14
 105 453 105 453 161 530 c 128,-1,15
 217 607 217 607 295 656 c 128,-1,16
 373 705 373 705 459 728 c 1,17,18
 356 757 356 757 294 821 c 128,-1,19
 232 885 232 885 232 970 c 0,20,21
 232 993 232 993 236 1012 c 0,22,23
 249 1087 249 1087 301 1144 c 128,-1,24
 353 1201 353 1201 428 1240 c 1,25,26
 351 1256 351 1256 273 1282 c 1,27,-1
 329 1414 l 1,28,29
 496 1346 496 1346 702 1346 c 0,30,31
 939 1346 939 1346 1100 1377 c 1,32,-1
 1085 1232 l 1,33,34
 985 1224 985 1224 841 1202 c 0,35,36
 739 1190 739 1190 683 1178.5 c 128,-1,37
 627 1167 627 1167 575 1145 c 0,38,39
 499 1118 499 1118 450.5 1081.5 c 128,-1,40
 402 1045 402 1045 391 990 c 0,41,42
 390 984 390 984 390 973 c 0,43,44
 390 928 390 928 425 894.5 c 128,-1,45
 460 861 460 861 518.5 842.5 c 128,-1,46
 577 824 577 824 646 824 c 2,47,-1
 948 824 l 1,48,-1
 923 682 l 1,49,-1
 806 682 l 2,50,51
 673 682 673 682 548 630 c 128,-1,52
 423 578 423 578 340 496.5 c 128,-1,53
 257 415 257 415 241 332 c 0,54,55
 239 316 239 316 239 310 c 0,56,57
 239 231 239 231 330.5 200.5 c 128,-1,58
 422 170 422 170 573 164 c 0,59,60
 734 158 734 158 850 109 c 128,-1,61
 966 60 966 60 966 -58 c 0,62,63
 966 -82 966 -82 962 -102 c 0,64,65
 944 -214 944 -214 847.5 -272 c 128,-1,66
 751 -330 751 -330 579 -330 c 0,67,68
 517 -330 517 -330 468 -325 c 1,69,-1
 482 -183 l 1,70,0
 538 -192 538 -192 586 -192 c 0,1,2
EndSplineSet
EndChar

StartChar: omicron
Encoding: 959 959 90
Width: 1200
GlyphClass: 2
Flags: W
AnchorPoint: "Anchor-23" 700 1118 basechar 0
AnchorPoint: "Anchor-20" 500 -8 basechar 0
LayerCount: 2
Fore
SplineSet
302.5 50.5 m 128,-1,1
 203 109 203 109 148.5 213 c 128,-1,2
 94 317 94 317 94 449 c 0,3,4
 94 503 94 503 105 567 c 0,5,6
 130 718 130 718 215 843 c 128,-1,7
 300 968 300 968 426 1041 c 128,-1,8
 552 1114 552 1114 694 1114 c 0,9,10
 821 1114 821 1114 915 1056.5 c 128,-1,11
 1009 999 1009 999 1059.5 896.5 c 128,-1,12
 1110 794 1110 794 1110 663 c 0,13,14
 1110 600 1110 600 1098 534 c 0,15,16
 1072 382 1072 382 992 258.5 c 128,-1,17
 912 135 912 135 792 63.5 c 128,-1,18
 672 -8 672 -8 531 -8 c 0,19,0
 402 -8 402 -8 302.5 50.5 c 128,-1,1
242 442 m 0,21,22
 242 340 242 340 277.5 270 c 128,-1,23
 313 200 313 200 376.5 165 c 128,-1,24
 440 130 440 130 523 130 c 0,25,26
 620 130 620 130 707.5 176 c 128,-1,27
 795 222 795 222 860 319.5 c 128,-1,28
 925 417 925 417 952 565 c 0,29,30
 963 633 963 633 963 682 c 0,31,32
 963 831 963 831 886.5 903.5 c 128,-1,33
 810 976 810 976 680 976 c 0,34,35
 582 976 582 976 495.5 934.5 c 128,-1,36
 409 893 409 893 344 799.5 c 128,-1,37
 279 706 279 706 252 559 c 0,38,20
 242 499 242 499 242 442 c 0,21,22
EndSplineSet
EndChar

StartChar: pi
Encoding: 960 960 91
Width: 1200
GlyphClass: 2
Flags: W
AnchorPoint: "Anchor-23" 700 1118 basechar 0
AnchorPoint: "Anchor-20" 492 -42 basechar 0
LayerCount: 2
Fore
SplineSet
747.5 28 m 128,-1,1
 700 80 700 80 700 163 c 0,2,3
 700 193 700 193 708 230 c 0,4,5
 716 303 716 303 832 963 c 1,6,-1
 518 949 l 1,7,8
 380 418 380 418 295 -7 c 1,9,-1
 135 7 l 1,10,11
 205 282 205 282 256 493 c 128,-1,12
 307 704 307 704 363 963 c 1,13,-1
 162 956 l 1,14,-1
 187 1100 l 1,15,-1
 1197 1100 l 1,16,-1
 1172 956 l 1,17,-1
 968 949 l 1,18,19
 891 517 891 517 861 380 c 1,20,21
 843 256 843 256 843 210 c 256,22,23
 843 164 843 164 858 141 c 128,-1,24
 873 118 873 118 910 118 c 0,25,26
 967 118 967 118 1046 161 c 1,27,-1
 1028 14 l 1,28,29
 963 -24 963 -24 883 -24 c 0,30,0
 795 -24 795 -24 747.5 28 c 128,-1,1
EndSplineSet
EndChar

StartChar: rho
Encoding: 961 961 92
Width: 1200
GlyphClass: 2
Flags: W
AnchorPoint: "Anchor-23" 700 1118 basechar 0
AnchorPoint: "Anchor-20" 429 -418 basechar 0
LayerCount: 2
Fore
SplineSet
-57 -480 m 1,0,-1
 16 -70 l 2,1,2
 37 46 37 46 86.5 271.5 c 128,-1,3
 136 497 136 497 163 588 c 0,4,5
 205 729 205 729 282 844.5 c 128,-1,6
 359 960 359 960 471 1030 c 128,-1,7
 583 1100 583 1100 723 1100 c 0,8,9
 833 1100 833 1100 915 1044.5 c 128,-1,10
 997 989 997 989 1041 891 c 128,-1,11
 1085 793 1085 793 1085 669 c 0,12,13
 1085 608 1085 608 1073 540 c 0,14,15
 1045 376 1045 376 967 250.5 c 128,-1,16
 889 125 889 125 776.5 56.5 c 128,-1,17
 664 -12 664 -12 535 -12 c 0,18,19
 460 -12 460 -12 394.5 8 c 128,-1,20
 329 28 329 28 284.5 64.5 c 128,-1,21
 240 101 240 101 226 149 c 1,22,23
 187 -28 187 -28 126 -366 c 2,24,-1
 104 -486 l 1,25,-1
 -57 -480 l 1,0,-1
319 431 m 0,27,28
 319 343 319 343 345.5 276.5 c 128,-1,29
 372 210 372 210 422 173 c 128,-1,30
 472 136 472 136 541 136 c 0,31,32
 625 136 625 136 703.5 191 c 128,-1,33
 782 246 782 246 838.5 342.5 c 128,-1,34
 895 439 895 439 917 558 c 0,35,36
 924 600 924 600 924 646 c 0,37,38
 924 731 924 731 898 802 c 128,-1,39
 872 873 872 873 822.5 915.5 c 128,-1,40
 773 958 773 958 706 958 c 0,41,42
 625 958 625 958 545 897.5 c 128,-1,43
 465 837 465 837 406 739.5 c 128,-1,44
 347 642 347 642 328 538 c 0,45,26
 319 481 319 481 319 431 c 0,27,28
EndSplineSet
EndChar

StartChar: uni03C2
Encoding: 962 962 93
Width: 1200
GlyphClass: 2
Flags: W
AnchorPoint: "Anchor-23" 700 1118 basechar 0
AnchorPoint: "Anchor-20" 442 -346 basechar 0
LayerCount: 2
Fore
SplineSet
866.5 902.5 m 128,-1,1
 795 970 795 970 688 970 c 0,2,3
 606 970 606 970 527 932.5 c 128,-1,4
 448 895 448 895 393 831 c 128,-1,5
 338 767 338 767 323 689 c 0,6,7
 320 671 320 671 320 654 c 0,8,9
 320 596 320 596 354.5 555 c 128,-1,10
 389 514 389 514 439.5 487 c 128,-1,11
 490 460 490 460 575 426 c 0,12,13
 681 388 681 388 748.5 357.5 c 128,-1,14
 816 327 816 327 872.5 272 c 128,-1,15
 929 217 929 217 929 141 c 0,16,17
 929 120 929 120 925 103 c 0,18,19
 909 6 909 6 806 -66.5 c 128,-1,20
 703 -139 703 -139 540 -171 c 1,21,-1
 504 -23 l 1,22,23
 748 23 748 23 769 128 c 0,24,25
 770 132 770 132 770 140 c 0,26,27
 770 171 770 171 744 194.5 c 128,-1,28
 718 218 718 218 678.5 236 c 128,-1,29
 639 254 639 254 568 281 c 0,30,31
 494 309 494 309 478 316 c 0,32,33
 346 364 346 364 254 442.5 c 128,-1,34
 162 521 162 521 162 654 c 0,35,36
 162 686 162 686 168 720 c 0,37,38
 186 828 186 828 260 916.5 c 128,-1,39
 334 1005 334 1005 448 1056.5 c 128,-1,40
 562 1108 562 1108 696 1108 c 0,41,42
 864 1108 864 1108 968 1023 c 128,-1,43
 1072 938 1072 938 1106 770 c 1,44,-1
 967 725 l 1,45,0
 938 835 938 835 866.5 902.5 c 128,-1,1
EndSplineSet
EndChar

StartChar: sigma
Encoding: 963 963 94
Width: 1200
GlyphClass: 2
Flags: W
AnchorPoint: "Anchor-23" 708 1118 basechar 0
AnchorPoint: "Anchor-20" 507 -20 basechar 0
LayerCount: 2
Fore
SplineSet
274.5 40 m 128,-1,1
 182 100 182 100 131.5 204.5 c 128,-1,2
 81 309 81 309 81 438 c 0,3,4
 81 499 81 499 93 562 c 0,5,6
 119 718 119 718 207.5 842.5 c 128,-1,7
 296 967 296 967 428 1037.5 c 128,-1,8
 560 1108 560 1108 710 1108 c 0,9,10
 793 1108 793 1108 962 1130 c 128,-1,11
 1131 1152 1131 1152 1241 1171 c 1,12,-1
 1219 986 l 1,13,14
 1047 1004 1047 1004 850 1013 c 1,15,16
 943 961 943 961 996 875 c 128,-1,17
 1049 789 1049 789 1049 662 c 0,18,19
 1049 605 1049 605 1037 537 c 0,20,21
 1011 385 1011 385 934 257.5 c 128,-1,22
 857 130 857 130 741 55 c 128,-1,23
 625 -20 625 -20 489 -20 c 0,24,0
 367 -20 367 -20 274.5 40 c 128,-1,1
236 448 m 0,26,27
 236 356 236 356 269 281 c 128,-1,28
 302 206 302 206 360 163 c 128,-1,29
 418 120 418 120 491 120 c 0,30,31
 579 120 579 120 662 179.5 c 128,-1,32
 745 239 745 239 804.5 340 c 128,-1,33
 864 441 864 441 886 559 c 0,34,35
 894 603 894 603 894 656 c 0,36,37
 894 745 894 745 865 815 c 128,-1,38
 836 885 836 885 783 924.5 c 128,-1,39
 730 964 730 964 658 964 c 0,40,41
 568 964 568 964 480 906 c 128,-1,42
 392 848 392 848 328.5 749.5 c 128,-1,43
 265 651 265 651 244 535 c 0,44,25
 236 487 236 487 236 448 c 0,26,27
EndSplineSet
EndChar

StartChar: tau
Encoding: 964 964 95
Width: 1200
GlyphClass: 2
Flags: W
AnchorPoint: "Anchor-23" 697 1100 basechar 0
AnchorPoint: "Anchor-20" 499 -22 basechar 0
LayerCount: 2
Fore
SplineSet
221 966 m 0,1,2
 225 974 225 974 242.5 1014 c 128,-1,3
 260 1054 260 1054 279 1107 c 1,4,5
 319 1103 319 1103 654.5 1101.5 c 128,-1,6
 990 1100 990 1100 1165 1100 c 1,7,-1
 1146 960 l 1,8,-1
 798 960 l 1,9,10
 752 843 752 843 714.5 714.5 c 128,-1,11
 677 586 677 586 657 486 c 2,12,-1
 651 451 l 2,13,14
 628 332 628 332 628 269 c 0,15,16
 628 126 628 126 729 126 c 0,17,18
 784 126 784 126 835 156 c 128,-1,19
 886 186 886 186 920 229 c 1,20,-1
 1009 123 l 1,21,22
 952 62 952 62 876.5 24 c 128,-1,23
 801 -14 801 -14 707 -14 c 0,24,25
 583 -14 583 -14 528 55 c 128,-1,26
 473 124 473 124 473 257 c 0,27,28
 473 345 473 345 495 466 c 0,29,30
 515 585 515 585 549.5 715 c 128,-1,31
 584 845 584 845 628 959 c 1,32,33
 495 955 495 955 415.5 934.5 c 128,-1,34
 336 914 336 914 299 867 c 1,35,-1
 182 878 l 1,36,0
 193 904 193 904 221 966 c 0,1,2
EndSplineSet
EndChar

StartChar: upsilon
Encoding: 965 965 96
Width: 1200
GlyphClass: 2
Flags: W
AnchorPoint: "Anchor-23" 700 1118 basechar 0
AnchorPoint: "Anchor-20" 492 -42 basechar 0
LayerCount: 2
Fore
SplineSet
304.5 27 m 128,-1,1
 218 76 218 76 171.5 168 c 128,-1,2
 125 260 125 260 125 385 c 0,3,4
 125 452 125 452 138 520 c 0,5,6
 145 565 145 565 156.5 609 c 128,-1,7
 168 653 168 653 187 718 c 0,8,9
 216 820 216 820 230.5 888 c 128,-1,10
 245 956 245 956 245 1031 c 0,11,12
 245 1073 245 1073 241 1106 c 1,13,-1
 423 1094 l 1,14,15
 425 992 425 992 404.5 895.5 c 128,-1,16
 384 799 384 799 345 670 c 0,17,18
 310 553 310 553 299 496 c 0,19,20
 288 430 288 430 288 376 c 0,21,22
 288 257 288 257 341.5 187.5 c 128,-1,23
 395 118 395 118 512 118 c 0,24,25
 618 118 618 118 695.5 183 c 128,-1,26
 773 248 773 248 820 348.5 c 128,-1,27
 867 449 867 449 888 564 c 0,28,29
 912 713 912 713 912 852 c 0,30,31
 912 994 912 994 888 1105 c 1,32,-1
 1056 1095 l 1,33,34
 1081 984 1081 984 1081 860 c 0,35,36
 1081 718 1081 718 1049 540 c 0,37,38
 1019 368 1019 368 945.5 241.5 c 128,-1,39
 872 115 872 115 760.5 46.5 c 128,-1,40
 649 -22 649 -22 507 -22 c 0,41,0
 391 -22 391 -22 304.5 27 c 128,-1,1
EndSplineSet
EndChar

StartChar: phi
Encoding: 966 966 97
Width: 1200
GlyphClass: 2
Flags: W
AnchorPoint: "Anchor-23" 697 1100 basechar 0
AnchorPoint: "Anchor-20" 440 -356 basechar 0
LayerCount: 2
Fore
SplineSet
421 -9 m 1,0,1
 249 -1 249 -1 165 92 c 128,-1,2
 81 185 81 185 81 373 c 0,3,4
 81 472 81 472 103 594 c 0,5,6
 133 769 133 769 185 874.5 c 128,-1,7
 237 980 237 980 312.5 1033 c 128,-1,8
 388 1086 388 1086 497 1105 c 1,9,-1
 519 969 l 1,10,11
 424 952 424 952 355 853 c 128,-1,12
 286 754 286 754 251 563 c 0,13,14
 235 471 235 471 235 395 c 0,15,16
 235 134 235 134 442 134 c 1,17,-1
 524 560 l 2,18,19
 556 740 556 740 602 861 c 128,-1,20
 648 982 648 982 723.5 1048.5 c 128,-1,21
 799 1115 799 1115 911 1115 c 0,22,23
 1030 1115 1030 1115 1084.5 1042.5 c 128,-1,24
 1139 970 1139 970 1139 829 c 0,25,26
 1139 732 1139 732 1114 594 c 0,27,28
 1077 382 1077 382 1012.5 253 c 128,-1,29
 948 124 948 124 843 60.5 c 128,-1,30
 738 -3 738 -3 579 -9 c 1,31,-1
 518 -364 l 1,32,-1
 360 -364 l 1,33,-1
 421 -9 l 1,0,1
770 186.5 m 128,-1,35
 840 239 840 239 889 351 c 128,-1,36
 938 463 938 463 971 647 c 0,37,38
 990 761 990 761 990 828 c 256,39,40
 990 895 990 895 970 931.5 c 128,-1,41
 950 968 950 968 902 968 c 0,42,43
 836 968 836 968 792 906 c 128,-1,44
 748 844 748 844 723.5 756.5 c 128,-1,45
 699 669 699 669 677 548 c 2,46,-1
 602 134 l 1,47,34
 700 134 700 134 770 186.5 c 128,-1,35
EndSplineSet
EndChar

StartChar: chi
Encoding: 967 967 98
Width: 1200
GlyphClass: 2
Flags: W
AnchorPoint: "Anchor-23" 700 1118 basechar 0
LayerCount: 2
Fore
SplineSet
589 -228 m 128,-1,1
 533 -146 533 -146 515.5 -25 c 128,-1,2
 498 96 498 96 499 251 c 1,3,4
 330 31 330 31 122 -270 c 1,5,-1
 -34 -258 l 1,6,7
 102 -69 102 -69 319 228 c 2,8,-1
 502 480 l 1,9,10
 504 532 504 532 506 558 c 0,11,12
 507 579 507 579 509 629.5 c 128,-1,13
 511 680 511 680 511 718 c 0,14,15
 511 839 511 839 485 906.5 c 128,-1,16
 459 974 459 974 389 974 c 0,17,18
 362 974 362 974 321 958.5 c 128,-1,19
 280 943 280 943 238 901 c 1,20,-1
 174 1015 l 1,21,22
 219 1061 219 1061 280 1088.5 c 128,-1,23
 341 1116 341 1116 408 1116 c 0,24,25
 532 1116 532 1116 579 1005 c 128,-1,26
 626 894 626 894 626 722 c 0,27,28
 626 693 626 693 624 641 c 1,29,30
 790 858 790 858 917 1031 c 0,31,32
 946 1072 946 1072 971 1106 c 1,33,-1
 1139 1095 l 1,34,35
 942 838 942 838 737 558 c 2,36,-1
 611 388 l 1,37,-1
 610 312 l 1,38,39
 610 -168 610 -168 756 -168 c 0,40,41
 792 -168 792 -168 833.5 -144.5 c 128,-1,42
 875 -121 875 -121 900 -91 c 1,43,-1
 974 -199 l 1,44,45
 920 -255 920 -255 867 -282.5 c 128,-1,46
 814 -310 814 -310 752 -310 c 0,47,0
 645 -310 645 -310 589 -228 c 128,-1,1
EndSplineSet
EndChar

StartChar: psi
Encoding: 968 968 99
Width: 1200
GlyphClass: 2
Flags: W
AnchorPoint: "Anchor-23" 762 1470 basechar 0
AnchorPoint: "Anchor-20" 436 -360 basechar 0
LayerCount: 2
Fore
SplineSet
424 1 m 1,0,1
 292 30 292 30 236 139.5 c 128,-1,2
 180 249 180 249 180 396 c 0,3,4
 180 472 180 472 194 554 c 0,5,6
 225 737 225 737 225 836 c 0,7,8
 225 923 225 923 204.5 978.5 c 128,-1,9
 184 1034 184 1034 136 1102 c 1,10,-1
 313 1094 l 1,11,12
 372 1015 372 1015 372 843 c 0,13,14
 372 713 372 713 338 528 c 0,15,16
 325 450 325 450 325 386 c 0,17,18
 325 183 325 183 449 142 c 1,19,-1
 683 1470 l 1,20,-1
 842 1470 l 1,21,-1
 608 148 l 1,22,23
 709 186 709 186 772 297 c 128,-1,24
 835 408 835 408 862 552 c 0,25,26
 899 770 899 770 949 904 c 128,-1,27
 999 1038 999 1038 1071 1103 c 1,28,-1
 1264 1093 l 1,29,30
 1189 1021 1189 1021 1147.5 962.5 c 128,-1,31
 1106 904 1106 904 1072.5 805 c 128,-1,32
 1039 706 1039 706 1007 530 c 0,33,34
 989 421 989 421 940 307.5 c 128,-1,35
 891 194 891 194 801.5 105.5 c 128,-1,36
 712 17 712 17 582 -3 c 1,37,-1
 519 -358 l 1,38,-1
 361 -358 l 1,39,-1
 424 1 l 1,0,1
EndSplineSet
EndChar

StartChar: omega
Encoding: 969 969 100
Width: 1200
GlyphClass: 2
Flags: W
AnchorPoint: "Anchor-23" 700 1118 basechar 0
AnchorPoint: "Anchor-20" 492 -42 basechar 0
LayerCount: 2
Fore
SplineSet
136 60.5 m 128,-1,1
 71 141 71 141 71 319 c 0,2,3
 71 428 71 428 95 558 c 0,4,5
 123 724 123 724 183.5 859 c 128,-1,6
 244 994 244 994 328 1094 c 1,7,-1
 501 1094 l 1,8,9
 396 947 396 947 331 812 c 128,-1,10
 266 677 266 677 239 530 c 0,11,12
 216 394 216 394 216 299 c 0,13,14
 216 108 216 108 308 108 c 0,15,16
 349 108 349 108 387.5 144 c 128,-1,17
 426 180 426 180 456.5 247 c 128,-1,18
 487 314 487 314 503 404 c 2,19,-1
 533 584 l 1,20,-1
 679 578 l 1,21,22
 667 512 667 512 651 400 c 0,23,24
 641 323 641 323 641 261 c 0,25,26
 641 184 641 184 660 146 c 128,-1,27
 679 108 679 108 718 108 c 0,28,29
 800 108 800 108 862.5 240.5 c 128,-1,30
 925 373 925 373 958 554 c 0,31,32
 970 629 970 629 970 699 c 0,33,34
 970 797 970 797 949 893 c 128,-1,35
 928 989 928 989 888 1094 c 1,36,-1
 1056 1094 l 1,37,38
 1124 933 1124 933 1124 747 c 0,39,40
 1124 644 1124 644 1104 534 c 0,41,42
 1069 332 1069 332 1004.5 208.5 c 128,-1,43
 940 85 940 85 865 32.5 c 128,-1,44
 790 -20 790 -20 716 -20 c 0,45,46
 648 -20 648 -20 600.5 32.5 c 128,-1,47
 553 85 553 85 538 177 c 1,48,49
 494 88 494 88 430.5 34 c 128,-1,50
 367 -20 367 -20 306 -20 c 0,51,0
 201 -20 201 -20 136 60.5 c 128,-1,1
EndSplineSet
EndChar

StartChar: zero
Encoding: 48 48 101
Width: 1200
GlyphClass: 1
Flags: W
LayerCount: 2
Fore
SplineSet
276.5 26.5 m 128,-1,1
 189 73 189 73 152 160 c 128,-1,2
 115 247 115 247 115 378 c 0,3,4
 115 510 115 510 156 744 c 0,5,6
 199 987 199 987 260 1140.5 c 128,-1,7
 321 1294 321 1294 439 1382 c 128,-1,8
 557 1470 557 1470 754 1470 c 0,9,10
 901 1470 901 1470 988 1422 c 128,-1,11
 1075 1374 1075 1374 1112 1284.5 c 128,-1,12
 1149 1195 1149 1195 1149 1063 c 0,13,14
 1149 934 1149 934 1112 720 c 0,15,16
 1067 463 1067 463 1008 308.5 c 128,-1,17
 949 154 949 154 832 67 c 128,-1,18
 715 -20 715 -20 512 -20 c 0,19,0
 364 -20 364 -20 276.5 26.5 c 128,-1,1
284 402 m 0,21,22
 284 265 284 265 337 194.5 c 128,-1,23
 390 124 390 124 517 124 c 0,24,25
 651 124 651 124 735 200.5 c 128,-1,26
 819 277 819 277 865.5 409 c 128,-1,27
 912 541 912 541 948 744 c 0,28,29
 967 852 967 852 976.5 926.5 c 128,-1,30
 986 1001 986 1001 986 1062 c 0,31,32
 986 1193 986 1193 932.5 1259.5 c 128,-1,33
 879 1326 879 1326 749 1326 c 0,34,35
 611 1326 611 1326 528 1252.5 c 128,-1,36
 445 1179 445 1179 400.5 1052 c 128,-1,37
 356 925 356 925 320 720 c 0,38,20
 284 514 284 514 284 402 c 0,21,22
655 874 m 1,39,-1
 758 732 l 1,40,-1
 615 604 l 1,41,-1
 510 732 l 1,42,-1
 655 874 l 1,39,-1
EndSplineSet
Substitution2: "'ss04' Style Set 4 lookup 44 subtable" zero.alternate
Substitution2: "'fwid' Full Widths lookup 32 subtable" uniFF10
Substitution2: "'zero' Slashed Zero lookup 31 subtable" zero.zero
Substitution2: "'onum' Oldstyle Figures lookup 25 subtable" zero.tosf
Substitution2: "'tnum' Tabular Numbers lookup 24 subtable" zero.tf
Substitution2: "'pnum' Proportional Numbers lookup 23 subtable" zero.lf
Substitution2: "'dnom' Denominators lookup 17 subtable" zero.dnom
Substitution2: "'numr' Numerators lookup 16 subtable" zero.numr
Substitution2: "'sups' Superscript lookup 15 subtable" uni2070
Substitution2: "'sinf' Scientific Inferiors lookup 14 subtable" uni2080
Substitution2: "'subs' Subscript lookup 13 subtable" uni2080
AlternateSubs2: "'aalt' Access All Alternates lookup 1 subtable" uni2080 uni2070 zero.numr zero.dnom zero.lf zero.tf zero.tosf zero.zero uniFF10 zero.alternate
EndChar

StartChar: one
Encoding: 49 49 102
Width: 1200
GlyphClass: 1
Flags: W
LayerCount: 2
Fore
SplineSet
121 148 m 1,0,-1
 475 148 l 1,1,-1
 662 1186 l 1,2,3
 567 1105 567 1105 442.5 1027.5 c 128,-1,4
 318 950 318 950 232 928 c 1,5,-1
 253 1102 l 1,6,7
 360 1144 360 1144 495.5 1251 c 128,-1,8
 631 1358 631 1358 724 1455 c 1,9,-1
 873 1450 l 1,10,-1
 643 148 l 1,11,-1
 971 148 l 1,12,-1
 945 0 l 1,13,-1
 95 0 l 1,14,-1
 121 148 l 1,0,-1
EndSplineSet
Substitution2: "'fwid' Full Widths lookup 32 subtable" uniFF11
Substitution2: "'onum' Oldstyle Figures lookup 25 subtable" one.tosf
Substitution2: "'tnum' Tabular Numbers lookup 24 subtable" one.tf
Substitution2: "'pnum' Proportional Numbers lookup 23 subtable" one.lf
Substitution2: "'dnom' Denominators lookup 17 subtable" one.dnom
Substitution2: "'numr' Numerators lookup 16 subtable" one.numr
Substitution2: "'sups' Superscript lookup 15 subtable" uni00B9
Substitution2: "'sinf' Scientific Inferiors lookup 14 subtable" uni2081
Substitution2: "'subs' Subscript lookup 13 subtable" uni2081
AlternateSubs2: "'aalt' Access All Alternates lookup 1 subtable" uni2081 uni00B9 one.numr one.dnom one.lf one.tf one.tosf uniFF11
EndChar

StartChar: two
Encoding: 50 50 103
Width: 1200
GlyphClass: 1
Flags: W
LayerCount: 2
Fore
SplineSet
113 195 m 128,-1,1
 127 206 127 206 140 216 c 0,2,3
 337 370 337 370 491.5 503 c 128,-1,4
 646 636 646 636 778 793 c 128,-1,5
 910 950 910 950 933 1080 c 0,6,7
 938 1105 938 1105 938 1136 c 0,8,9
 938 1223 938 1223 886.5 1272.5 c 128,-1,10
 835 1322 835 1322 748 1322 c 0,11,12
 670 1322 670 1322 602.5 1286 c 128,-1,13
 535 1250 535 1250 489 1185.5 c 128,-1,14
 443 1121 443 1121 428 1038 c 1,15,-1
 254 1050 l 1,16,17
 281 1186 281 1186 355 1280.5 c 128,-1,18
 429 1375 429 1375 534.5 1422.5 c 128,-1,19
 640 1470 640 1470 760 1470 c 0,20,21
 862 1470 862 1470 944.5 1434.5 c 128,-1,22
 1027 1399 1027 1399 1075.5 1327.5 c 128,-1,23
 1124 1256 1124 1256 1124 1153 c 0,24,25
 1124 1116 1124 1116 1116 1070 c 0,26,27
 1093 938 1093 938 975.5 786.5 c 128,-1,28
 858 635 858 635 715.5 504 c 128,-1,29
 573 373 573 373 372 206 c 2,30,-1
 286 134 l 1,31,-1
 963 138 l 1,32,-1
 937 -10 l 1,33,-1
 55 -10 l 1,34,-1
 84 172 l 1,35,0
 99 184 99 184 113 195 c 128,-1,1
EndSplineSet
Substitution2: "'fwid' Full Widths lookup 32 subtable" uniFF12
Substitution2: "'onum' Oldstyle Figures lookup 25 subtable" two.tosf
Substitution2: "'tnum' Tabular Numbers lookup 24 subtable" two.tf
Substitution2: "'pnum' Proportional Numbers lookup 23 subtable" two.lf
Substitution2: "'dnom' Denominators lookup 17 subtable" two.dnom
Substitution2: "'numr' Numerators lookup 16 subtable" two.numr
Substitution2: "'sups' Superscript lookup 15 subtable" uni00B2
Substitution2: "'sinf' Scientific Inferiors lookup 14 subtable" uni2082
Substitution2: "'subs' Subscript lookup 13 subtable" uni2082
AlternateSubs2: "'aalt' Access All Alternates lookup 1 subtable" uni2082 uni00B2 two.numr two.dnom two.lf two.tf two.tosf uniFF12
EndChar

StartChar: three
Encoding: 51 51 104
Width: 1200
GlyphClass: 1
Flags: W
LayerCount: 2
Fore
SplineSet
276 343 m 0,1,2
 276 274 276 274 307.5 224.5 c 128,-1,3
 339 175 339 175 392.5 149.5 c 128,-1,4
 446 124 446 124 509 124 c 0,5,6
 590 124 590 124 667.5 160 c 128,-1,7
 745 196 745 196 800 262.5 c 128,-1,8
 855 329 855 329 870 416 c 0,9,10
 876 449 876 449 876 479 c 0,11,12
 876 570 876 570 826 634 c 128,-1,13
 776 698 776 698 685 731 c 128,-1,14
 594 764 594 764 473 764 c 1,15,-1
 492 914 l 1,16,-1
 962 1300 l 1,17,-1
 298 1300 l 1,18,-1
 325 1450 l 1,19,-1
 1201 1450 l 1,20,-1
 1172 1280 l 1,21,-1
 703 887 l 1,22,23
 885 852 885 852 968.5 747.5 c 128,-1,24
 1052 643 1052 643 1052 497 c 0,25,26
 1052 450 1052 450 1042 392 c 0,27,28
 1019 261 1019 261 933 167 c 128,-1,29
 847 73 847 73 729 25.5 c 128,-1,30
 611 -22 611 -22 493 -22 c 0,31,32
 385 -22 385 -22 295.5 17 c 128,-1,33
 206 56 206 56 152.5 134 c 128,-1,34
 99 212 99 212 99 324 c 0,35,36
 99 362 99 362 107 410 c 1,37,-1
 281 398 l 1,38,0
 276 366 276 366 276 343 c 0,1,2
EndSplineSet
Substitution2: "'fwid' Full Widths lookup 32 subtable" uniFF13
Substitution2: "'onum' Oldstyle Figures lookup 25 subtable" three.tosf
Substitution2: "'tnum' Tabular Numbers lookup 24 subtable" three.tf
Substitution2: "'pnum' Proportional Numbers lookup 23 subtable" three.lf
Substitution2: "'dnom' Denominators lookup 17 subtable" three.dnom
Substitution2: "'numr' Numerators lookup 16 subtable" three.numr
Substitution2: "'sups' Superscript lookup 15 subtable" uni00B3
Substitution2: "'sinf' Scientific Inferiors lookup 14 subtable" uni2083
Substitution2: "'subs' Subscript lookup 13 subtable" uni2083
AlternateSubs2: "'aalt' Access All Alternates lookup 1 subtable" uni2083 uni00B3 three.numr three.dnom three.lf three.tf three.tosf uniFF13
EndChar

StartChar: four
Encoding: 52 52 105
Width: 1200
GlyphClass: 1
Flags: W
LayerCount: 2
Fore
SplineSet
672 312 m 1,0,-1
 38 312 l 1,1,-1
 64 472 l 1,2,-1
 815 1450 l 1,3,-1
 1047 1450 l 1,4,-1
 872 460 l 1,5,-1
 1078 460 l 1,6,-1
 1052 312 l 1,7,-1
 846 312 l 1,8,-1
 791 0 l 1,9,-1
 617 0 l 1,10,-1
 672 312 l 1,0,-1
700 460 m 1,11,-1
 840 1244 l 1,12,-1
 250 460 l 1,13,-1
 700 460 l 1,11,-1
EndSplineSet
Substitution2: "'fwid' Full Widths lookup 32 subtable" uniFF14
Substitution2: "'onum' Oldstyle Figures lookup 25 subtable" four.tosf
Substitution2: "'tnum' Tabular Numbers lookup 24 subtable" four.tf
Substitution2: "'pnum' Proportional Numbers lookup 23 subtable" four.lf
Substitution2: "'dnom' Denominators lookup 17 subtable" four.dnom
Substitution2: "'numr' Numerators lookup 16 subtable" four.numr
Substitution2: "'sups' Superscript lookup 15 subtable" uni2074
Substitution2: "'sinf' Scientific Inferiors lookup 14 subtable" uni2084
Substitution2: "'subs' Subscript lookup 13 subtable" uni2084
AlternateSubs2: "'aalt' Access All Alternates lookup 1 subtable" uni2084 uni2074 four.numr four.dnom four.lf four.tf four.tosf uniFF14
EndChar

StartChar: five
Encoding: 53 53 106
Width: 1200
GlyphClass: 1
Flags: W
LayerCount: 2
Fore
SplineSet
306.5 14.5 m 128,-1,1
 221 47 221 47 171 115 c 128,-1,2
 121 183 121 183 121 283 c 0,3,4
 121 322 121 322 128 360 c 1,5,-1
 302 348 l 1,6,7
 297 318 297 318 297 298 c 0,8,9
 297 211 297 211 353.5 168.5 c 128,-1,10
 410 126 410 126 503 126 c 0,11,12
 597 126 597 126 671.5 176.5 c 128,-1,13
 746 227 746 227 793.5 311.5 c 128,-1,14
 841 396 841 396 859 498 c 0,15,16
 867 546 867 546 867 586 c 0,17,18
 867 692 867 692 817 757 c 128,-1,19
 767 822 767 822 666 822 c 0,20,21
 572 822 572 822 489.5 762 c 128,-1,22
 407 702 407 702 367 604 c 1,23,-1
 190 610 l 1,24,-1
 442 1450 l 1,25,-1
 1165 1450 l 1,26,-1
 1138 1296 l 1,27,-1
 576 1296 l 1,28,-1
 424 835 l 1,29,30
 491 904 491 904 559 941 c 128,-1,31
 627 978 627 978 705 978 c 0,32,33
 814 978 814 978 890 929 c 128,-1,34
 966 880 966 880 1004.5 793.5 c 128,-1,35
 1043 707 1043 707 1043 595 c 0,36,37
 1043 529 1043 529 1032 470 c 0,38,39
 1006 326 1006 326 930.5 215 c 128,-1,40
 855 104 855 104 743 43 c 128,-1,41
 631 -18 631 -18 500 -18 c 0,42,0
 392 -18 392 -18 306.5 14.5 c 128,-1,1
EndSplineSet
Substitution2: "'fwid' Full Widths lookup 32 subtable" uniFF15
Substitution2: "'onum' Oldstyle Figures lookup 25 subtable" five.tosf
Substitution2: "'tnum' Tabular Numbers lookup 24 subtable" five.tf
Substitution2: "'pnum' Proportional Numbers lookup 23 subtable" five.lf
Substitution2: "'dnom' Denominators lookup 17 subtable" five.dnom
Substitution2: "'numr' Numerators lookup 16 subtable" five.numr
Substitution2: "'sups' Superscript lookup 15 subtable" uni2075
Substitution2: "'sinf' Scientific Inferiors lookup 14 subtable" uni2085
Substitution2: "'subs' Subscript lookup 13 subtable" uni2085
AlternateSubs2: "'aalt' Access All Alternates lookup 1 subtable" uni2085 uni2075 five.numr five.dnom five.lf five.tf five.tosf uniFF15
EndChar

StartChar: six
Encoding: 54 54 107
Width: 1200
GlyphClass: 1
Flags: W
LayerCount: 2
Fore
SplineSet
229 95.5 m 128,-1,1
 138 215 138 215 138 429 c 0,2,3
 138 553 138 553 167 716 c 0,4,5
 226 1050 226 1050 372.5 1260 c 128,-1,6
 519 1470 519 1470 778 1470 c 0,7,8
 889 1470 889 1470 962.5 1434 c 128,-1,9
 1036 1398 1036 1398 1089 1338 c 1,10,-1
 961 1240 l 1,11,12
 907 1322 907 1322 768 1322 c 0,13,14
 637 1322 637 1322 549 1223 c 128,-1,15
 461 1124 461 1124 414 991 c 128,-1,16
 367 858 367 858 335 703 c 1,17,18
 489 952 489 952 699 952 c 0,19,20
 809 952 809 952 889.5 898 c 128,-1,21
 970 844 970 844 1012 751 c 128,-1,22
 1054 658 1054 658 1054 544 c 0,23,24
 1054 487 1054 487 1044 434 c 0,25,26
 1020 300 1020 300 947.5 196 c 128,-1,27
 875 92 875 92 766.5 34 c 128,-1,28
 658 -24 658 -24 529 -24 c 0,29,0
 320 -24 320 -24 229 95.5 c 128,-1,1
307 353 m 0,31,32
 307 248 307 248 365.5 186 c 128,-1,33
 424 124 424 124 531 124 c 0,34,35
 667 124 667 124 756 214.5 c 128,-1,36
 845 305 845 305 871 454 c 0,37,38
 880 502 880 502 880 547 c 0,39,40
 880 654 880 654 829.5 719 c 128,-1,41
 779 784 779 784 675 784 c 0,42,43
 584 784 584 784 508 736 c 128,-1,44
 432 688 432 688 381.5 606 c 128,-1,45
 331 524 331 524 314 426 c 0,46,30
 307 382 307 382 307 353 c 0,31,32
EndSplineSet
Substitution2: "'fwid' Full Widths lookup 32 subtable" uniFF16
Substitution2: "'onum' Oldstyle Figures lookup 25 subtable" six.tosf
Substitution2: "'tnum' Tabular Numbers lookup 24 subtable" six.tf
Substitution2: "'pnum' Proportional Numbers lookup 23 subtable" six.lf
Substitution2: "'dnom' Denominators lookup 17 subtable" six.dnom
Substitution2: "'numr' Numerators lookup 16 subtable" six.numr
Substitution2: "'sups' Superscript lookup 15 subtable" uni2076
Substitution2: "'sinf' Scientific Inferiors lookup 14 subtable" uni2086
Substitution2: "'subs' Subscript lookup 13 subtable" uni2086
AlternateSubs2: "'aalt' Access All Alternates lookup 1 subtable" uni2086 uni2076 six.numr six.dnom six.lf six.tf six.tosf uniFF16
EndChar

StartChar: seven
Encoding: 55 55 108
Width: 1200
GlyphClass: 1
Flags: W
LayerCount: 2
Fore
SplineSet
988 1286 m 1,0,-1
 308 1286 l 1,1,-1
 337 1450 l 1,2,-1
 1213 1450 l 1,3,-1
 1186 1288 l 1,4,-1
 373 0 l 1,5,-1
 175 0 l 1,6,-1
 988 1286 l 1,0,-1
EndSplineSet
Substitution2: "'fwid' Full Widths lookup 32 subtable" uniFF17
Substitution2: "'onum' Oldstyle Figures lookup 25 subtable" seven.tosf
Substitution2: "'tnum' Tabular Numbers lookup 24 subtable" seven.tf
Substitution2: "'pnum' Proportional Numbers lookup 23 subtable" seven.lf
Substitution2: "'dnom' Denominators lookup 17 subtable" seven.dnom
Substitution2: "'numr' Numerators lookup 16 subtable" seven.numr
Substitution2: "'sups' Superscript lookup 15 subtable" uni2077
Substitution2: "'sinf' Scientific Inferiors lookup 14 subtable" uni2087
Substitution2: "'subs' Subscript lookup 13 subtable" uni2087
AlternateSubs2: "'aalt' Access All Alternates lookup 1 subtable" uni2087 uni2077 seven.numr seven.dnom seven.lf seven.tf seven.tosf uniFF17
EndChar

StartChar: eight
Encoding: 56 56 109
Width: 1200
GlyphClass: 1
Flags: W
LayerCount: 2
Fore
SplineSet
303 21.5 m 128,-1,1
 208 57 208 57 150.5 132.5 c 128,-1,2
 93 208 93 208 93 322 c 0,3,4
 93 358 93 358 101 408 c 0,5,6
 124 541 124 541 208.5 635.5 c 128,-1,7
 293 730 293 730 410 771 c 1,8,9
 280 852 280 852 280 1017 c 0,10,11
 280 1063 280 1063 288 1104 c 0,12,13
 309 1224 309 1224 381.5 1307 c 128,-1,14
 454 1390 454 1390 553 1430 c 128,-1,15
 652 1470 652 1470 754 1470 c 0,16,17
 855 1470 855 1470 938 1437 c 128,-1,18
 1021 1404 1021 1404 1070 1336 c 128,-1,19
 1119 1268 1119 1268 1119 1169 c 0,20,21
 1119 1130 1119 1130 1112 1094 c 0,22,23
 1091 978 1091 978 1026.5 893 c 128,-1,24
 962 808 962 808 867 764 c 1,25,26
 953 721 953 721 1004.5 646 c 128,-1,27
 1056 571 1056 571 1056 471 c 0,28,29
 1056 438 1056 438 1050 402 c 0,30,31
 1024 257 1024 257 943 163.5 c 128,-1,32
 862 70 862 70 750 28 c 128,-1,33
 638 -14 638 -14 513 -14 c 0,34,0
 398 -14 398 -14 303 21.5 c 128,-1,1
270 343 m 0,36,37
 270 240 270 240 339 185 c 128,-1,38
 408 130 408 130 518 130 c 0,39,40
 600 130 600 130 676.5 164.5 c 128,-1,41
 753 199 753 199 807.5 266 c 128,-1,42
 862 333 862 333 878 426 c 0,43,44
 883 452 883 452 883 485 c 0,45,46
 883 588 883 588 814.5 640 c 128,-1,47
 746 692 746 692 637 692 c 0,48,49
 552 692 552 692 475 658 c 128,-1,50
 398 624 398 624 344.5 557.5 c 128,-1,51
 291 491 291 491 275 398 c 0,52,35
 270 366 270 366 270 343 c 0,36,37
438 1028 m 0,54,55
 438 951 438 951 491.5 908.5 c 128,-1,56
 545 866 545 866 648 866 c 0,57,58
 770 866 770 866 852 930 c 128,-1,59
 934 994 934 994 953 1102 c 0,60,61
 958 1127 958 1127 958 1158 c 0,62,63
 958 1242 958 1242 904.5 1288 c 128,-1,64
 851 1334 851 1334 750 1334 c 0,65,66
 627 1334 627 1334 545.5 1264.5 c 128,-1,67
 464 1195 464 1195 442 1074 c 0,68,53
 438 1053 438 1053 438 1028 c 0,54,55
EndSplineSet
Substitution2: "'fwid' Full Widths lookup 32 subtable" uniFF18
Substitution2: "'onum' Oldstyle Figures lookup 25 subtable" eight.tosf
Substitution2: "'tnum' Tabular Numbers lookup 24 subtable" eight.tf
Substitution2: "'pnum' Proportional Numbers lookup 23 subtable" eight.lf
Substitution2: "'dnom' Denominators lookup 17 subtable" eight.dnom
Substitution2: "'numr' Numerators lookup 16 subtable" eight.numr
Substitution2: "'sups' Superscript lookup 15 subtable" uni2078
Substitution2: "'sinf' Scientific Inferiors lookup 14 subtable" uni2088
Substitution2: "'subs' Subscript lookup 13 subtable" uni2088
AlternateSubs2: "'aalt' Access All Alternates lookup 1 subtable" uni2088 uni2078 eight.numr eight.dnom eight.lf eight.tf eight.tosf uniFF18
EndChar

StartChar: nine
Encoding: 57 57 110
Width: 1200
GlyphClass: 1
Flags: W
LayerCount: 2
Fore
SplineSet
291.5 16.5 m 128,-1,1
 207 51 207 51 159 116.5 c 128,-1,2
 111 182 111 182 111 270 c 1,3,-1
 261 312 l 1,4,5
 276 212 276 212 331.5 169 c 128,-1,6
 387 126 387 126 491 126 c 0,7,8
 636 126 636 126 727.5 229 c 128,-1,9
 819 332 819 332 862 462 c 128,-1,10
 905 592 905 592 942 765 c 1,11,12
 873 660 873 660 776 608 c 128,-1,13
 679 556 679 556 567 556 c 0,14,15
 459 556 459 556 377.5 604 c 128,-1,16
 296 652 296 652 252 737 c 128,-1,17
 208 822 208 822 208 931 c 0,18,19
 208 979 208 979 217 1030 c 0,20,21
 240 1160 240 1160 317.5 1260 c 128,-1,22
 395 1360 395 1360 508.5 1415 c 128,-1,23
 622 1470 622 1470 750 1470 c 0,24,25
 957 1470 957 1470 1045.5 1362.5 c 128,-1,26
 1134 1255 1134 1255 1134 1056 c 0,27,28
 1134 934 1134 934 1106 778 c 0,29,30
 1067 556 1067 556 999.5 382.5 c 128,-1,31
 932 209 932 209 806 95.5 c 128,-1,32
 680 -18 680 -18 486 -18 c 0,33,0
 376 -18 376 -18 291.5 16.5 c 128,-1,1
380 925 m 0,35,36
 380 821 380 821 436 757.5 c 128,-1,37
 492 694 492 694 597 694 c 0,38,39
 692 694 692 694 768 736.5 c 128,-1,40
 844 779 844 779 892.5 854.5 c 128,-1,41
 941 930 941 930 958 1028 c 0,42,43
 964 1064 964 1064 964 1098 c 0,44,45
 964 1203 964 1203 905 1265.5 c 128,-1,46
 846 1328 846 1328 741 1328 c 0,47,48
 653 1328 653 1328 578.5 1286 c 128,-1,49
 504 1244 504 1244 454 1169.5 c 128,-1,50
 404 1095 404 1095 387 1000 c 0,51,34
 380 964 380 964 380 925 c 0,35,36
EndSplineSet
Substitution2: "'fwid' Full Widths lookup 32 subtable" uniFF19
Substitution2: "'onum' Oldstyle Figures lookup 25 subtable" nine.tosf
Substitution2: "'tnum' Tabular Numbers lookup 24 subtable" nine.tf
Substitution2: "'pnum' Proportional Numbers lookup 23 subtable" nine.lf
Substitution2: "'dnom' Denominators lookup 17 subtable" nine.dnom
Substitution2: "'numr' Numerators lookup 16 subtable" nine.numr
Substitution2: "'sups' Superscript lookup 15 subtable" uni2079
Substitution2: "'sinf' Scientific Inferiors lookup 14 subtable" uni2089
Substitution2: "'subs' Subscript lookup 13 subtable" uni2089
AlternateSubs2: "'aalt' Access All Alternates lookup 1 subtable" uni2089 uni2079 nine.numr nine.dnom nine.lf nine.tf nine.tosf uniFF19
EndChar

StartChar: asterisk
Encoding: 42 42 111
Width: 1200
GlyphClass: 1
Flags: W
LayerCount: 2
Fore
SplineSet
235 129 m 1,0,-1
 488 489 l 1,1,-1
 435 466 l 1,2,-1
 59 466 l 1,3,-1
 59 635 l 1,4,-1
 435 635 l 1,5,-1
 488 613 l 1,6,-1
 235 972 l 1,7,-1
 417 1077 l 1,8,-1
 601 727 l 1,9,-1
 784 1077 l 1,10,-1
 966 972 l 1,11,-1
 713 613 l 1,12,-1
 766 635 l 1,13,-1
 1142 635 l 1,14,-1
 1142 466 l 1,15,-1
 765 466 l 1,16,-1
 713 489 l 1,17,-1
 966 129 l 1,18,-1
 784 24 l 1,19,-1
 601 375 l 1,20,-1
 417 24 l 1,21,-1
 235 129 l 1,0,-1
EndSplineSet
Substitution2: "'ss05' Style Set 5 lookup 45 subtable" u1F7AF
Substitution2: "'fwid' Full Widths lookup 32 subtable" uniFF0A
AlternateSubs2: "'aalt' Access All Alternates lookup 1 subtable" uniFF0A u1F7AF
EndChar

StartChar: hyphen
Encoding: 45 45 112
Width: 1200
GlyphClass: 1
Flags: W
LayerCount: 2
Fore
SplineSet
214 652 m 1,0,-1
 1016 652 l 1,1,-1
 985 452 l 1,2,-1
 183 452 l 1,3,-1
 214 652 l 1,0,-1
EndSplineSet
Substitution2: "Single Substitution lookup 76 subtable" hyphenfull.alternate
Substitution2: "Single Substitution lookup 71 subtable" hyphenfullone.alternate
Substitution2: "Single Substitution lookup 67 subtable" hyphen.alternate
Substitution2: "Single Substitution lookup 66 subtable" hyphenfull.alternate
Substitution2: "Single Substitution lookup 65 subtable" hyphen.alternate
Substitution2: "Single Substitution lookup 64 subtable" hyphenfull.alternate
Substitution2: "'fwid' Full Widths lookup 32 subtable" uniFF0D
AlternateSubs2: "'aalt' Access All Alternates lookup 1 subtable" uniFF0D hyphenfull.alternate hyphen.alternate hyphenfullone.alternate
EndChar

StartChar: plus
Encoding: 43 43 113
Width: 1200
GlyphClass: 1
Flags: W
LayerCount: 2
Fore
SplineSet
475 452 m 1,0,-1
 117 452 l 1,1,-1
 151 644 l 1,2,-1
 509 644 l 1,3,-1
 576 1026 l 1,4,-1
 790 1026 l 1,5,-1
 723 644 l 1,6,-1
 1081 644 l 1,7,-1
 1047 452 l 1,8,-1
 689 452 l 1,9,-1
 622 72 l 1,10,-1
 408 72 l 1,11,-1
 475 452 l 1,0,-1
EndSplineSet
Substitution2: "'fwid' Full Widths lookup 32 subtable" uniFF0B
Substitution2: "'sups' Superscript lookup 15 subtable" uni207A
Substitution2: "'sinf' Scientific Inferiors lookup 14 subtable" uni208A
Substitution2: "'subs' Subscript lookup 13 subtable" uni208A
AlternateSubs2: "'aalt' Access All Alternates lookup 1 subtable" uni208A uni207A uniFF0B
EndChar
